<mxfile host="app.diagrams.net" agent="Mozilla/5.0 (Windows NT 10.0; Win64; x64) AppleWebKit/537.36 (KHTML, like Gecko) Chrome/135.0.0.0 Safari/537.36" version="26.2.14">
  <diagram name="PÃ¡gina-1" id="kk4pWyMIdzhVVmpif1KS">
    <mxGraphModel dx="1426" dy="875" grid="1" gridSize="10" guides="1" tooltips="1" connect="1" arrows="1" fold="1" page="1" pageScale="1" pageWidth="850" pageHeight="1100" math="0" shadow="0">
      <root>
        <mxCell id="0" />
        <mxCell id="1" parent="0" />
        <mxCell id="QdALqMk5L36PqvdnBMki-22" value="REPOSITORIO" style="swimlane;whiteSpace=wrap;html=1;fillColor=none;strokeColor=default;" parent="1" vertex="1">
          <mxGeometry x="520" y="106.5" width="200.5" height="53.5" as="geometry" />
        </mxCell>
        <mxCell id="QdALqMk5L36PqvdnBMki-15" value="CENTROS DE COSTOS" style="swimlane;whiteSpace=wrap;html=1;" parent="1" vertex="1">
          <mxGeometry x="40" y="106.5" width="200" height="53.5" as="geometry" />
        </mxCell>
        <mxCell id="QdALqMk5L36PqvdnBMki-18" value="FUENTE" style="swimlane;whiteSpace=wrap;html=1;" parent="1" vertex="1">
          <mxGeometry x="280" y="106.5" width="200" height="53.5" as="geometry" />
        </mxCell>
        <mxCell id="QdALqMk5L36PqvdnBMki-24" value="CONSUMIR VISUALIZAR" style="swimlane;whiteSpace=wrap;html=1;" parent="1" vertex="1">
          <mxGeometry x="760" y="106.5" width="200" height="53.5" as="geometry" />
        </mxCell>
        <mxCell id="QdALqMk5L36PqvdnBMki-37" value="" style="rounded=0;whiteSpace=wrap;html=1;fillColor=none;dashed=1;" parent="1" vertex="1">
          <mxGeometry x="920" y="350.00000000000006" width="180" height="80" as="geometry" />
        </mxCell>
        <mxCell id="QdALqMk5L36PqvdnBMki-36" value="" style="rounded=0;whiteSpace=wrap;html=1;fillColor=none;dashed=1;" parent="1" vertex="1">
          <mxGeometry x="1095" y="612.3200000000002" width="180" height="125" as="geometry" />
        </mxCell>
        <mxCell id="QdALqMk5L36PqvdnBMki-3" value="" style="image;aspect=fixed;html=1;points=[];align=center;fontSize=12;image=img/lib/azure2/databases/SQL_Database.svg;" parent="1" vertex="1">
          <mxGeometry x="1161.5" y="619.3200000000002" width="48.75" height="65" as="geometry" />
        </mxCell>
        <mxCell id="QdALqMk5L36PqvdnBMki-8" value="" style="sketch=0;shadow=0;dashed=0;html=1;strokeColor=none;labelPosition=center;verticalLabelPosition=bottom;verticalAlign=top;outlineConnect=0;align=center;shape=mxgraph.office.databases.database_mini_1;fillColor=#2072B8;" parent="1" vertex="1">
          <mxGeometry x="1120" y="699.3200000000002" width="35" height="27" as="geometry" />
        </mxCell>
        <mxCell id="QdALqMk5L36PqvdnBMki-11" value="" style="sketch=0;shadow=0;dashed=0;html=1;strokeColor=none;labelPosition=center;verticalLabelPosition=bottom;verticalAlign=top;outlineConnect=0;align=center;shape=mxgraph.office.databases.database_mini_1;fillColor=#2072B8;" parent="1" vertex="1">
          <mxGeometry x="1168" y="699.3200000000002" width="35" height="27" as="geometry" />
        </mxCell>
        <mxCell id="QdALqMk5L36PqvdnBMki-12" value="" style="sketch=0;shadow=0;dashed=0;html=1;strokeColor=none;labelPosition=center;verticalLabelPosition=bottom;verticalAlign=top;outlineConnect=0;align=center;shape=mxgraph.office.databases.database_mini_1;fillColor=#2072B8;" parent="1" vertex="1">
          <mxGeometry x="1215" y="699.3200000000002" width="35" height="27" as="geometry" />
        </mxCell>
        <mxCell id="QdALqMk5L36PqvdnBMki-38" value="&lt;font style=&quot;font-size: 10px;&quot;&gt;&lt;b style=&quot;&quot;&gt;DATAWAREHOUSE&lt;/b&gt;&lt;/font&gt;" style="text;html=1;align=center;verticalAlign=middle;whiteSpace=wrap;rounded=0;labelBackgroundColor=none;" parent="1" vertex="1">
          <mxGeometry x="1135" y="587.3200000000002" width="100" height="30" as="geometry" />
        </mxCell>
        <mxCell id="QdALqMk5L36PqvdnBMki-41" value="" style="sketch=0;pointerEvents=1;shadow=0;dashed=0;html=1;strokeColor=none;fillColor=#505050;labelPosition=center;verticalLabelPosition=bottom;verticalAlign=top;outlineConnect=0;align=center;shape=mxgraph.office.concepts.settings;" parent="1" vertex="1">
          <mxGeometry x="730" y="650.71" width="30.68" height="30.68" as="geometry" />
        </mxCell>
        <mxCell id="QdALqMk5L36PqvdnBMki-4" value="" style="image;aspect=fixed;html=1;points=[];align=center;fontSize=12;image=img/lib/azure2/other/Exchange_On_Premises_Access.svg;" parent="1" vertex="1">
          <mxGeometry x="145.17000000000002" y="425" width="15.67" height="26.63" as="geometry" />
        </mxCell>
        <mxCell id="QdALqMk5L36PqvdnBMki-7" value="" style="shape=image;verticalLabelPosition=bottom;labelBackgroundColor=default;verticalAlign=top;aspect=fixed;imageAspect=0;image=data:image/png,iVBORw0KGgoAAAANSUhEUgAAAgAAAAIACAYAAAGDf+RsAAAAAXNSR0IArs4c6QAAAAlwSFlzAAALEwAACxMBAJqcGAAAActpVFh0WE1MOmNvbS5hZG9iZS54bXAAAAAAADx4OnhtcG1ldGEgeG1sbnM6eD0iYWRvYmU6bnM6bWV0YS8iIHg6eG1wdGs9IlhNUCBDb3JlIDUuNC4wIj4KICAgPHJkZjpSREYgeG1sbnM6cmRmPSJodHRwOi8vd3d3LnczLm9yZy8xOTk5LzAyLzIyLXJkZi1zeW50YXgtbnMjIj4KICAgICAgPHJkZjpEZXNjcmlwdGlvbiByZGY6YWJvdXQ9IiIKICAgICAgICAgICAgeG1sbnM6eG1wPSJodHRwOi8vbnMuYWRvYmUuY29tL3hhcC8xLjAvIgogICAgICAgICAgICB4bWxuczp0aWZmPSJodHRwOi8vbnMuYWRvYmUuY29tL3RpZmYvMS4wLyI+CiAgICAgICAgIDx4bXA6Q3JlYXRvclRvb2w+QWRvYmUgSW1hZ2VSZWFkeTwveG1wOkNyZWF0b3JUb29sPgogICAgICAgICA8dGlmZjpPcmllbnRhdGlvbj4xPC90aWZmOk9yaWVudGF0aW9uPgogICAgICA8L3JkZjpEZXNjcmlwdGlvbj4KICAgPC9yZGY6UkRGPgo8L3g6eG1wbWV0YT4KKS7NPQAAQABJREFUeAHsvQmgJFV1N179ltlYBoZdRXZxRVGSz11QQz63iOCgJhH/fxeI+wKIIMqgKKtxV8QlmigqCBgTd5QxRqMJCBoxEWVRQVlmgGGY9b1+/f1+VXW6b926t+pWd3W/6jfnzJxXdzn33HN/555TS29RpKQIKAKKgCKgCGyzCLSGsfLDr1o11Y/e1Uesmu1n3CBjagXg+d8+63n/e/etX+t0oqjDfyig6C+n/VwAJd9yyFHRSY85qlabysCZKBOo0m8vvspYyhKsC667goeRUZ0AtOj5ZBmJ/bb3fatK9kkUievPHyEIdQKQbHVCYGxtc9FcKPtCaFQg1AsAF24sXhZsLzneGRYQLmBGAUK9AND7McdLz3hbwDC9nwfGbomi8669PN9oKhmwXDMAvYWLRwUQsdNeDUcISQ6QuhyHCUK9ABghkCycOyJZYCY0jDDhIgUsAtCDo9dOmWGBUC8AxgLSvZDkBGPBslguSsBJylF04o+/yKKXzh1CONQMQHfZ3YVzNeJVWXyyO3o7Q1a8x7Il0XuvvDianJqKJicnMzyR1i/4xVdFnQwb6NjXJatvRlmg9JuWSl9Z26Jdl0Tn/vTL0cS6mVRNFihzvMwzyLFeAGxLYK1sc9PweJ+kp0FpF4BiFZOtqL3TdDS5ftbYPYlykben6rdeLwDpokxjTIO7YHgXn0jHfyda0ez2CINN7TRJtrpgmPoHLdcLgMcaWTi7xdMCjNQlU2TaAUJ76WTU2tKONUufZ5q+mmsFwLTAXDTbewuVpZptydJcC+wgTXeWTEbR1jlTfW3lWgGwF41VZ7atucAeIPnFS5+M7vACYdFE1JpFiyPMBkGjXgA8xrkXTrPLF99dHECYw0Zo1bwR6gWga222cOXhp0Yzs8lpjUv2XfJylIBFmb/4t3O6dfZxYAd5oU6qFQDTMHOr7r/Lg6OZtpzXTSl/uYXVChiU6uqrd/1RrQB0jfSs6yFXvC7ukYX95gUfiesHXv7atD3pufHoj2U0mHolL2QEBqjUCkBvA7stkoWbvdLmW9gwF087agagtzRZWK8lisTjZht39G+P/qjZ1C0Pe/GcqFYAXIvurgaF5ZccZ1ajdcf+YxznO13yUqv9nzJ13+7ICPVZqRcAz2lQbNttaoe4aC6IO2CXtF3kzKMpa7bXVa4VgDKjrnzaqU6R7z/tNGe7a/ElGDv1FDXWCoDLYHPyfXd5kFntln3tXYG0UPfiqbZWAGyD7fr+l78m03RTerrb77JXd9sJ4i3HXNitszCMhcsEtQJQlgR3n1iUzGutaI+03bWDLFGxu7ZjrQCUWfWToz7gFPnJCz7obB/24jlprQCY521zRcs+fzSu413XsJ49kzbvNL2zqSYuu3ZJTqhCQ60A+OZdsWhFsPFFXq978TSqdgD6NbJo4TS0X70cW0S1AlDVyLJF0/CqOosW6+qrFQDXBHZbyKI5ZtgLF7vqBMCXA2Wu4OOoFk+Dan1l6N4/HIxHuMHrzAhy0fIv02FWoHvdDu06nWZq17IioAgoAorANocAXmvxEm/Rng7+C/Bi8A3gQYm3g98qUcITaZ8n0xLNFbrPg+xjUnkac0GFsUWi1FtE56DzdPD7wM9LBemEfugB/QziGHr+7QGDXV5ytfFiS9rLADjXMS8BMHWIiOg065QTIphCbDf7pN15N7gZve9JJTiJ+bTijajTSD7aoRyPbwGzbRrMd3vz5cu3gWkAQ4w62PZWMIl1yrONRp0ClgcD26FMkEQWxegvwWvBfw2mXspyh3wDzD7KUt8vwY8D3wg+ELwFTNt/AD4MzBB+LPgN4C45Uen2JpNxAJkLJi0BvwlMY+Tt7TSKQNAYLlAWfjLKJ4FlgSjGxr8Lx42sgB6dHOK/fO2MOl4FlrC7FuWfgwnUkWAC9EPwDmAuksTL4/Xg1eC9wXQUAZYjgf0sOLN41J07gBPZXqAsiQuh4kHpnVDAhdpET10N/iRYwuVOQ0iA/Gra9s84EnDuRGmTYyoSt1NuD/CbwXRcl3w3Fp+BhBjABXOnyMCtKL8fTPR5dhA6HwW+l4VGypFbkwaaxJ1C3R8EUwdluMVJK8GPBj8KbI9DU0xn4S9DgDpOBBPI+8EvAtP7+4BfD6bNLwHvBubz+M+DfetFl598hrjCx5RlP+s8Cpj+WbI9Lt2mhDlPUbvokaMpG5dDEJFtZw92hYIpezYGLE0HSbzbOnx1l25T1pynqF30yNGU1bIioAgoAoqAIqAIKAKKgCKgCGzDCPjuqvqGZGXnksm7Vv+qL71j//0B+198fGcKd7/xi5x4HZy3bL4yEebLySIzhTvnNzzqry466dAXnNA3+n0M9N4nV9V15L+8477p1oDqWq3jL7j2cj4NGhkNaHHPzt9tunsHvvkh8Wmv3Vfyvpmg1Xrleddd8QnfuLrbawOg04o3e7Ktja3tXShW4nuqgQRy/PnXXn5R3Yt16asPAC66u/DsTpA4LwIjMc6ApNV61ShAqA+ArkeTncAFCSDJ4pK/xhLjBjtksv2tV5137WVDDYcaAUhDQBae7gauMu5BXcgGxrczEnBax+Oj80NLjPUBMAdzrTCwF08IzMUmC0xgmfNmhLj/lcPaCfUBwMV1OfZ5xvM9/ydyybJ7gMwaO0b6zGMnah1/7s8uq30n1AhAb9E0XHZDXE5XErdJ2fC4gINrgGjdfffF3xswMTGR+f6A+PsEpqZe+f7r//XCVEUth5DXBYImMhfMAbKouJzGv7TJ1s+EA2XwhupP3nRlNHnPVgAo06IQ/08bFk/zSvHvpHfQY30AwJKuzalVmQVKWyolffGY7sCkMLvzomgSX6CQAIUPUMZoJB+kbE31dZvhxak+AGCkLMqcrbs2NNqelz5p5zhpm90RX6OxIX3xWRopgC9XqJPqAwBWmXaaRmYWmO5tke2BJi29ke3tcIu0iSAYH6MtelNPb2hwqTYAzBnNBUu7LNRcprQJdNIn7dTTib9AoXeS7Dg/eCGzVD/WBkBsrLUHZCFilr3ApD1pdfclEnOL8d0BM5gBu6fV1E+P0zh7wTRfFpYsBfU0BJK6f/EElCTjO9OIfXyBQvxiezK4lr817oCesbZl33wy3ykjS7F7k7rde6T13QExcEiA9abAPt8x4V5CrzXr5Sjaf1e+caMamYCY+vgtEnVSfTvAEwLi+fWb748e9823dffBnTPr8OHpf4qWf+WV0W4TyTttuO1vOOoj0SSuAkdFtQGQLNT0W34Jmd6O+aYNiXjHGCNnUGosQoDLyCwW9R2WbO/8/oB1L/xUftVpi7n1/RB5hwd11LYDuGB70aYF9yEE9v7aa3pNW++M1v3tt6LlX3whru7krURRdPcLPxeHwCgWT2PqA8CbA5I1c+vy+wPEk2s66WXu9PJolzQHJJLZvyIvrUZESNNAx9oAKLNi6aKlkfn9AeLhnx9xZmbohHGl51p8Y3MAjbUN5sokLKYmJiPX9wS42pJxMjLBp27PJ1prDAFR6DvyNPjob/TeHbt25t5o3YsujpZf+vJohRECv33BR3OnwWEtnrbWFgK+JGj60fz+gLUtvr03inbC4vn9Aa7dw/5hLp76awOAylwkMcvToOv7A353zMddw4a+cJm0NgDmeGHjcdfyL71Y5jOO5t4wmllEl+u7A5KugnGWmpBqbQAUTbYi/SIE3zaXsR784m4ZKztKxgx6rB0AMbSKYUULp55+dIbOXxsAiZHVtmfZwoe9eOqvDYCQu5SQBYvnhul1mYPH2u47p2/d9FousIjNiX1lLrxo8ZM333+Ub2w/7bXmlN0/+JLO1u37MSMszhet70R3venLtdrcn7U6ShFQBBQBRWBhIFB0SpFPffLyjp8arXaZl8eHb3YKeRcobRp0rvzsFVr4gWN+0tO8SEoe3FdQ4hD9sKPNbiLoLwfLJ03laMuV1XctEyjqL5u0aNf49HKMCYBLBz+PbLeLLXa7Xee8Zhs/hR5ErnsBc/tx225JNVH2tJT5EfrNYIYGX+GgodImz73MNnMHfQiy/Cgt5fkha34AmsQPVXMH/B78EbDQ36PwM/AjwZyPei8D43l6xBcduVPPBn8R/Ndgzr8vmPPw4/KU54et5YPWKPbIBoDKTCRP6InGSgiALJBdHwATIAGCbefwD8iU4yfFhQQ4yvFLF4QIvIyh0fwYP4nAkAgO6QbwXuAfgdlGm1neF8zvFeD2vwVsgsh5RB+KPeJgk+hNGvJQsxFlGntS2mYCZJatIYVVfkyeoIn3KWxuWwJxMBsdtBpt/I4AMhdFe6X+LyivAZtEmVvBXIO9XuftMAcI2twh3KZLwJyIO4B9i8H0/JvAbKfHpE2QNtvQ3SXqPAz8FDB3g3idHqORXwEfCxY9KGboeNQ+DeY3sn8OzPG06SzwO9L6RTgyp0hYnYEyibYGUw6t4JF5QTME2FuH7jIdZf2xlf1u4fwS8y3cATeCDwCLl/NSC7hFwJXjAl6qLk0RUAQUAUVAEVAEFAFFQBFQBBQBRUARUAQUAUVgDBBo/HOqY1e/r3PnujWdLbNb4s+WmO+wkjcRdZ/xpp12u7wlvStHx3Rle16ScRP4gd+XHPyMz5x86FF89LygqbEb4KCLT8Av6ybmidPFQbZDq7bTo7aOuC19uSD+LqNDnh87vtOZ++TJhx69YDdC0GsGMRKj+9M66JLXIAb5afluoMI1SfzajvO1VzVX9Mg4yRYtfInNBddd0QF/QvoW0rGJGyB+UZoOMf8RdNv5RY4Qh8oYU9bVZva7ytgQx5/PjTDE77FxzTvstkZugNjxCH86KsNAQyIzlvFkBRdoMs7sc7WZ/b3Zeq340oJXciOcf91XL+y1jm+poRsggZ4OMpkw246XaDadSZlYNr14yPSlbbFA+kfkzTHlF0edE7gRhvnNVqaNwyo3dAOImx1HIyvEDsMfcbBIx+0lzpcxJrCymRK98U1H3O2SNebAN3tdjo0w3O95M+2ss9zMDWB+FZvhcHEQHSIcOyLNC3E5lU/a+TchGcua6VAz+lPRzMGUzXTkKvH33GEjjNfFYjM3AMAVB7uOxF6iXRxIB4uTZUws52kXHTySZCzLW+fmohbuQ4rIlM/KdY4/FxkBzLemNZ6KVzk/5rf2/dLxc53ZduHsLgfY0WrKmH2yaTiBKRPXZVYM2GvDouglT3wWvtQuC5M9RobI0ZwLM1x0yqHHnCB9TTtmV9YM61r7fPFVpRtATM2CXeDQdIDP+Rk9zBrGBK2t7Wjy7q1JVsDpKUOQNckYGTfH3Uunoz+e/KUmYu18Z7C5nnkvZ+F1m2NHpGuM6ZgiebsPXo86+Oq22b2WRJ12J5q8L/2ql8S9GYPssWJHa0nNX3aVmXWwCt+m3Tji6VfAM42zAc70mZW0bDqdTfZ4e45sf7Y3ruGb29o743MGuEGY2DADjb2gTsYa9dSG+FDzd36aqgctN3MDpHcBvsVlXZOVsp3O3qxj85vL7rcl7Pn4pfHt7QEdOiY2t1P9HufTgJq/85Qq66JmbgCszgbdtWCXs0Uu79S8zrxMdtZsDeOt8z0TQHspbqS4EZIXK512l9xQiMnzcmzoBqBrbfiL8ck5JxV3acnLZqWytUSRa0xXDhthbgl+RQUNrdneAySO5LhWcy8BmnkRaDo/D3zqWc+h6xSr360nK52tJQpc40z7ZJp4LDZCZzrJCC1cMMZjeQtp3UbKmCYcG5kBGPwu4AUwl6OkT47+8fnR+Rb3/F7Hy6TpkXIdRj1f1OZtI/ZAU6mRG4AOcTnFB+Ic0uwtL7wwmmnzyny4xPcp7H/5q732ZTYeMwIvAPUUUM0pBDEDZMlwO8DopMXTydcy+oZunuEHnBNaMs0PN/vJlKWUa3P67HVlDf9Mo+9pZAYohsEFf3bEfZvXR4+7ovdd3dneKJLv7mY7tS3+4ku73+GdtGXnKPtO73F1Ptfa0A1AB2SdQGN9ZEuyfkd7U148/s5y5IvZ+7p9cfaY3RjdNWk+4et2FxbG2fGysEZugGrul6X0jjviS2rXvZDfIxFG6158cZhgKrUQHC8LbuQGEOPKjj5H8HuqD/1G/ktG5Hy8Jv3eaupn2074GYdd8RXOdiaR+X9T8rMOolfk7aNPry03H/VGbgA61ufcUJDKnNLTk1xCupxUZkPIHFgKX09qLDVyA5ShZQNv48vvKb/x6I+VqYn76f4qpwsOsuePFVl/6PhxoEZuAAIcArIPYJ4CnvLNU33d0c3xL/j8Y7d/+VeOj/bFN/j76GdHfSj3kwY+2XFxvNjf0A0g5iXHsmBy9d/XKXhH0Zz1wAg/53Jf/OjOntelOSvD2rg53VxBIzdADKppZcUyTwH8IZKExIlM9izLMe3G4Z7uLzmZfb3yhOcX48fZ8bL6xm4AMdB5BPLiVvabZZGXzxVmH8TTqSQ5JrWsg80+s5zI8m9Vx2et7elpQqmRG6Dot1hcoNFND7rkla6ublvfTsDucm2wrmJvoTejext5B460o5EboB8EenD3Mzo7pmqEm6PrtMPUO6xyIzdAAmJ/cVcVqEGcLXONm9PFbh4buQFMA+ss1+FssWecnS5r4LGJG6DTwq/pduKvYjdNLSn3fa4u0Wt09+t0vjuoqdTIj4bd/c+bpyY24Xfk6dRQHgLCdLj5r58ppjZ3ontuOrCxbwlp8gVqF+/dzznm1dgKO3QbhlAoeGxUeTZ8rvDeNadeNhafDay8OB2gCCgCioAioAgoAoqAIqAICAJjcTchxuqxh0AVx/FNdrukQ/kBuO3AfHM9dchdFH+j7c3g+aYPwwC+LXjQ36viD/BRD5/k8MMD/BG+W8FC/EGwr4O/Iw3jdgx9EsgfASMVAcqN0NxHXrH5wX/eDsnlYP76ohDXJz9xKT+ZxwCo/n5y0Vj9yN8XfBCYvztYC5VtAC767HSmIudTpMj5BG5rqodyBO5McPajtMlvjG405PibhQTbJolMtlMf39f9MjDl+ZuCNvGJ57vBfCLHNZGWgqnbtoF914OfCH4p+AtgynAely3r0U6H7AQm8b1l/M1Cmz6ABq6bejj3G8E28adCBSfa+i3w91IhZhu+lYm2cP3UIzqORvnxYFkLxzJjSx1FNwkY7t6klT/MSKJCkzjWdKzZx/Kp4PeACf6F4JvAJBp3PpiR8x/gK8DUw8X9BvwpMBfHcUy5bOdcJ4PfC+amZTrmqYYLpBz18TTEdoJingJ2R52//Ek5roFyLHNdnOer4B+DXcSxp4N5GqAN3GDUz3EkyYzcAAL2HiifCOYPYd4Dpm0cywDi3CRiwLWIPm7afcCUMekMVJaBBXtXBuDG4MYybTgY9V+DS6ksA1ABHcBdzYm4eCGCYEfEQWh7FZgLZkQQaLI4H8UYBEYIHcBdewWYczAqPgkWIqB0HDeREIFjuzif7azL5mDdpneiYSOYazgbTLunwbSBdrLuozvRYZ4Gnow67TYd9S3UaYPQHShQJ38hldcG7CPO3Ag2yYZ4cNrBDOCiQ9F4rasDbfTJM8C0S+zgfNyEpRSyARgBh4D/Fswdfz/4XWA6VsDjTj4jbaMjX5+WxSCCcQ2Y8gSdYLDvSjCJkcsooyMZ9eyjs98P3gyeBZN4pPPYTgdKNJupE80ZotxZYOqXSKKA6DcdzHbax3VSN6PKpN3MSkBZMOJ6OLc4nHNcCF4FJt0HXg6mrSY9BpVHgK9LG7l+jjWJQbgHmNgJvQIFbghzvdKXOdrKMp2eyulo3xEszueRG4BOvQ3sImYPOpJE+T+BP5SWcegS2zalNdHPU4mU2UWbLwDLqYFtrDNbSEq9CGVGPcERWokCN6IQMwIzSRHxVEI9JNrAzc/ULRv7Ayh/HfxdsEls/zb4m2kjA42bijaTuIbPgn8FNok4cf3s53x0+DvBMh+KcYY9KG27GMdfgLm2x4HFnwxCe2OjKU8yIN/TzBZmlgeCfwL+qmHiaSjvBGaW+bLRrsUSBMZtA8hyGPFmVPC0UBbNMlaPioAioAgoAoqAIqAIKAKKgCKgCCgCioAioAgoAoqAIqAIKAKKgCKgCCgCioAioAgoAoqAIqAIKAKKgCKgCCgCisBCRKD57wnsdFqHrz6Tb+EeKa0+YhXfkbvgKeRzAfMCwspLVk7O7njouzpXnXvamns3zbU7M/Fbw+Wr3sxv7DI77HbzO/9jOa4mVdKts8l45/n+S3ZlYIx809G0UVMjM8DKSy6Z3LTTr2d/u/a2SH6tXRwkDhXnlbUT0NwY2UXsSxEXPaw+Ztme0dMPfPzcSY85asFvAn5ypXE0u+tNs7+B88U5IzcwmXjiguuuWPCngUZugF/dcXPsAiNQ+94DEv0uBQEbbPKC6y6Xj3O5VIx9W+M2ABw2geu+lul8Mz2PHvEWM8GC3QSN2wBHrD4zY5PpfIlmiVyzb8gbY8GeDjJgDxnEMPU/SK7I6VzTweJ8lxLpk43hlHE1OtpEl90F3ZPnL8BrguZtAAt5OsR0ijjZ3BzWEFRFKt9T1OWQtpu4CRbU6aCRG0CcbjqennC51ZYx5dx9eS3Fm8neA9HE+QvowrCRG8CGnC4z3SYOMx1s9rvGh7TZMlLP625hEyyMW8RGbgBxuBx7jqDr8+4wW6Tf3Bwy3jG025UvmFrzvWiZPO/ay8b+dNDIDWDDnbi95xA6Vxzca00uHu2xZl02h69NdJr9xeXWxHnXjvdzgkZuAHG4HE0nmE4ynV9FxjfO1FGhPHH+tZeP7RPDRm4AG3yJ+CLnS3T7ZMx2W3++3tsivZIlZXSgiNPBeG6Cxm2A1dHqOL27nE4XEHcD+9grLufHHekf0/nmWBlHMVPGHOsrm2NTGW6CsbsmaNwG8APudrw4wnag6WifTl/7htnkyzr70IFrgvG6MGzkBiDwNtvOEsezvcj5Zp/pUN94yvxgw+32dJm6qTPTEVdaE+eO0emgkRsgD2rSQqfJP5GxnZFxsvGKUqY9dxIRbclxz6lFJRJZeUdt8twxyQSN3ADiZPtoAk3H9+N8UwfLpo7uJsHbZD74s69GU5PV3zDV1RHFmaDx1wTNe0fQqsOn9jnwAPlGzYy/TGeZHT3Qk1ZTLtdnxHahHDbYBH7w8YC1S6Ojn/Xc7nTmmG6jUbDna0Wd9omHHFV9Jxk6h1lspGFlIAsgNthsN8fa/cwoISQ65iZa0W922Ri971//KWphKH4PMKM/1pU5zWT1x12tZr+3sJEboMxJWZgTaXGajLVlbOeb8qas2R5/8+5kK5rda0k0effWdPuYSZMje/XMWPSYesWuph0bvwHKQLRBJ8D2mFDn553T09ResSiauBtnpp6/8+Jj2NLIDdCD3Y9oiOM5usj5tnaXTpGhTe0V09HkvckmcOo1NkfIGkT3fB4buQFcgBQ5h/IuwJ1OMpSbY/L6zd7eoPZO2AT3cRMY3vYZ0BvW2FIjN0DeGW783C7KR33sH+NiLa4bKvPzZTVna/gS/x2moskNvdd/4vHGfrDljakaV2zkBihCqQxcO+px2Z7LDqaOqs4X+fZ2U9HEpuQ239pbufmK1jPffY3cAKaDQgHKuxmZwPYMlJm6Xf3mfKas2S7luaWTUWsjMsGYRj/X0cgNIACXHV1O5xiXY21numSy2yM/uz2G83eWTUYTm83frsiPa3LLWG0An8O7AMPLLpl+nB82Jpl5bslE1Noyl8kuYpO9aaS9KcdGbgCXE4sA84FsO5E63LJZyWzNPca2cW4xNsFMNhPEcxmnh6I1zFdfIzdACBhuR/ZG2k5kj3tMVjJbc4+xnS+zdqa5CWwN0tvMY+M3gNtpbjB90Lt15KXzLfl5XM43x3WmW1FrFlK8AG149HN1jdwAboflnSEtpgOkjUe/nvyIfEvR+N4sznFT8Dw2wThQIzdAGXBl0PodT8350fkWt/Nd0e+yNZ4fLyK18HJy06mRG6AqbLfPrIuuffpZ9FqMN/+GZl9T1p7X1CF9j73qjGjXSf4wp2srZTdOZww2QSM3QIxu4J842tqbo/132TtwxIBineQRsGyIjDZHIzdBk2m8NgAADk3DwwTd4ed4uibYVnXdjdwAxefw8iUumeaPkftp88yWTGdV+czgtOKzuembopEbwAWwv43x2HsAQ0fs/OVXRDu0eu93tSP2xqM/hm8fS8bMtGeiAy9/bU69OG5Ne1O0buU/5PrNhnF1PtcwhhvAdqfpimw5XLI3ThzfaykujbPzubKGboB+XNdzFEf7NPgcxtHbmvO55oZuAJpWhbJX2pvaG6NNLes7HrsvDWe3Bmt3Qd67ZeK+vC1FGykv3dyWsdsAWfflgW3hrVrrVn4232G0yPmfTYsmp0vP8cbQuFjk/KpZxNY96nojN0CZk0cNUma+bibJtMaVcXM+jW7kBshDG97C6Nzpkr/Fo0DrFNBV0Ynuf9EXonZ6F7B1diba7fKXd3tzhfb90bqXXJFrthvG0flcw9hugEwaTp0pTlk8tWO0o3EbyHbTQWaG4Zt7d53awXvRuLZVDpGpW2wYl2P56uZhJRnnDjh/iHPMDZGbriDlU7ZMf8nw3HSjbmjkBhgUBDqlzDEhc5RtxLI5mu58YrDgNgDvAv7r8NML/dsxThmTE1PR9592mlfe5WRXm61gHJxPm8duA7jBzybxfXd5kO2PTN2UnsCGKZPPDDYeO2fbe7VxcT4tbuQGcDu5B/D8lrIPnWxbxsn5tL2RG8AGtUqd5+2HXfG6aIl1F2Dq+MXRH828GHTYP7/Z7M6Ub8F7Ddat/FSmzVcZN+dzHQtuA3BRd3Xa0XLvjR0lsnQf5L3UcX5ZSU58HJ3PRYzFBjDP2TnkKzaUXdmLuiqnoXF1PtfayA0wqMP3mVgULTJPAfAQdfLsjW95ydHukI/7uj09C+4pyA7j7HhZaiM3gBjXz5G3gVcf9YF0aNat6Rbonv8pNI0Xg/6jK99zfKLAHp+qxWEhOJ+rWXAbgIuaMKM/9/7gfArgrWBCckyr8SHftlCcz+WN3QZwnsONBzum64ZStpNEySRVriVKVA2lu5EbwOnkguXvsXivaPmXXlwgYXZV9KAMTYftMr0iagfeYTTd+VxaIzeAYB56nIFDVkzv7BUfxBF2ul9IzidgC2IDuDw/iNOpz3a8aw5f26Bz+/QOo31BbIA6Ad9WHC+bqfEboE7nyqJdx0EcT32jstNl+yBtjdwAowRzUMePs/NpeyM3wCA7OmRsHU7nPKPcqCHr6kdmm9kAdTldQF4IzudaFvQGqNvpBGyhOJ5rIfU+QZnU5//vqtWz/RhBZ9vcjx7fGDp+oTmfa23eBrhk5SResWvbziyr+xw3aPvgjm/NRVjToHYMa3zzNsCxl7anb9/6Z8NacKjewR2fzLRo7ewDI6wpdN5RyzVvAwCBu0697NrptVufg69b6+t0MAiIdTke3xc4O7lm6xPueuulxb9BN4ixNYzNv9ZZg9LaVHSi1h4XrNy3026vrE2nR1GdIdpqzX5+zabH3h6tWtX75grPvNqsCCgCioAioAgoAoqAIqAIKAKKgCKgCCgCioAioAgoAoqAIqAINBCBRr6A1ECcxsKkKi8G0fEngPcFm+P4gsd24NeDm0L8dChtetWABsk6eVyQL+xUeUvYewGCRP80ynyplr+dcj94E/g88JfB14Dnm7bCANo4CD0Hgw8H84VCbgCu/WSw0IdQYN9J6VHax+oYugHOwaoIAH+J4Y1gAiIfsmP7C8FPBl8LXgi0CotYBuYm+gX4oWmZOJwK5to3g5kVBAcUh04PwAz8tYu1dc0UsgG407lYOv9N6cTmognCJeBLwWZ7KjqWB2Y2YiPrlUVwAzwb/HVpGPGRwfdb8CfrmjdkA9D5dCwnL6Ii55sZwyzb+phN5Fxrlovk2EedpFAbinRTD/VdzIJF/EJBsc/skjUV6ZU+OZrjpSzrYL1oLSJvHvsaW7YBnp7OsMScqUKZi307mBdkYiDTKs+l9ptw/gZtjzLkOPbT4P8Fm/RIVF5qNDBV3w3eAfwWo90sUtf5YPMtZn+P+h2mUFqmnXQy34V0ddomB9v5IsuLTgYKicdVLKTEuU8BL5cGHDkvx5hOfjDqbwCLjVwX6ySOfyCYug8GMytT7+vApA+DN8QlfAM+jqeD+SMIpUQlRfTnaafrwo6bh4a4mM4gOASZZRLTKjcSF3g2mOczIYLxaDDHiBzBeTn4OLAQncI65aiLsrwA5VGAQzFDlGXq5oajnKz5RJR3A9vEec9MG8/Dkesj+NRjE9vOBf8W/AUw9dNxYjP7uTZ+dn0t+FPgGfBeYOoVOhwFOpPB8U/gn4PpQOJURNRPGcpeAb4IzPWtAgdRWQaQHbq9R5vsert7RzQcBt4KpkFvA8+BSXuACT53Ny+o2E859lPOJDrgkUYDdZLemhy6fynnIgLEPq6DUfIHsBDbacdpYLFN+ripGHWngzmWpz/KfAJ8M9ikz6Dy67ThTThS76PAnJsbjBixbQ2Y9A7w48AvYiWlZ+HIyOU8pOvBXwRzc70T/C4wiXXO9UlWUuJbzi8E35TW34LjMjDnF/+lXflD2Qb4OoYcB35YfmgccT5HrIf8UeAtYN4mmXQHKkvBBJk7/gww6SvJIfOXMpQ9AjwH5qLYZhM3EAG0iQCQCdIfwYxk2ky7RB+PPjoLHdyglLkA/GowI5q6SGy/IS4lfzgXMxHtJHNz0bYng02iHOkEMC+eKft9MDEzif5ZDma/jDH72c7MRj3Xgr8Epk33g4OobAP8Elo4sQt0ewICRVkadR+YIPvoHnQwhe8F5gKZwq4G2/SvaFgJPgS8OO3kprTpu2h4jt1o1OmU94Al23wD5dXgECKgpFPA1HEyWL5aVNZrOodzcWOb9FSzYpT3R/ngtH640W4WOb9vA3DeU8E8nTwG/Fgw24gvT3ulVLYBqIAGMIJ4EUUQBBAUM0QH0FAunkc6mOmPcxAUk+h0bhCmZBpL5x4Bvgps0gvSyn/hSD3PTfk/03Y5HCkFz5H2MJPwtMMyQZIjihmibe8C08nmWuUagnZzI5Goo4iIG4lZ0NQVN6Z/dk+PTN39krmus6BkBZib4WdlCmUhRXJvR6eAdTbKdCzrZBn/bpSfAiYROAL8T6yA3psc4r8c81AwQRRAeE4k/WVyyPyl06nrx+B/S8uc3yY74sx+6iD9CCzroN1M5Q8D28SNQvteY3VwDDPhIrDYTtuK6KNpJx1ik6z7TnRQz/stAW6eD4Jps0k7G5WdUKYMSWyhXpbt0wllciTg5DqMBi6W500CRmDeBWYbQW+DORmNZNs7wUJM6ceBCdo5YAJLWZ4TSaKHZbYT4HPBlCMxe5BWx3+TP1fh8HTweWDZCCKXSOT/MrKolxdejwdzHtrEtRwP5oUgbRe6HQXa8GDwh8CfAx8EPhTMdfIUIGQ7R9rl+GsUiBPxWwP+OPj/gg8Dk2gL574OTP2c773gHcEngGkjsSFxLuraBfzX4BnwpeCNYOL7BfCNYAYj/WJvKDTlqWwB9og90XAqmACaY+mEM8A2UebvwPuARX4Jym8E23QEGp4FlgVzsQSDwJlEG5hSuUjSMjBltgMTaBI36/bgV7KSEsGl3STOsQ7MjWE6H9WYaCsjiBtGiKepN0kFR0YebeCGEFtQjHUuwlE2Fp1MpzCiqZdz02ambZMei8qLweb632IKpGXOy3VQ79vAtN9cG6oRr4muZGFYJM6kfhpSRiEy1GHKmXPY+u0+7nZmhVAy5ykaEypXpEP6bJul3Tya8xXJU86U9ekw251lnxKnsNEou5RNrggyRONiiIyty5xD9HGnM93ZfTytcI4i0NDdpX7s6Q7us2Db7FJj2lUkTzlT1tTlazdluuWQa4CucAMKPCdy03IT8MkaUy2fNNLxN4CLQEO3ko1AaMTY4+arTntPAe8MFtu5428FfwSstA0iIBthG1y6LlkRUAQUAUVAEVAEFAFFQBFQBBQBRUARUAQUAUVAEVAEFAFFQBFQBBQBRUARUAQUAUVAEVAEFAFFQBFQBBQBRUARUAQUAUVAEVAEFAFFQBFQBBQBRUARUAQUAUVAEVAEFAFFQBFQBBQBRUARUAQUAUVAEVAEFAFFQBFQBBQBRWCBIKDfqTWAI1desnLy0mMvbR9+1aolO26c+vPWRIvfKlyZsl+enq1VVpYOML+ttqvD2djtNQqJYKc912pNTnS/bXGnRdvNfunIU75nCGpxzBHQBFDRgQj2qV1mJveb3m77G353x62zt29aPzXdmuh+TSXVdSMm1t2JOtkGq5/ypkC5vD0irpsqcjbEhsAOS8gnl7En+QrOSQx95PZ7REfs//g2lvuZEx991PGJVv07zghoAgj03qrOqolffHPpAzZObvrDTXffng14K66yAY3wtALPErcSQHV5xmtuTse6bDsoYtuStOVbp7DiRy5FAjjo8enaO7g8aH1aE4ED6DFq0gQQ4KyVl1wy2drllmOvueO3n59qTWS+Ud+KbWizQ7F6QNuBaodjbgYYkZfJL8zWSwl7XNKWb5UE8HQkgB7FcnNQ8qmTDn0Bf9BEacwQ0AQQ6LDHfO3Ezsb7N5RK26FoB50dWmXynLCOMbEeK1vZemVxtk1slwTQuwKINcoQHvng4NMnPUYTgQlK08uZs1nTjZ0X+zpR63lXf2LZxs3y41JuKxg0duDYwe8eWdzqC9LiUfneUFvsNeQ1eVv4C1jHX3DdFbMX/Pyrn/RKaUejENAEUOYOXCOt/9c/beWNrwS562ircQWcHcx2sLnG5PTa1wO2UgxwNNlqhlbH3JNYxyvPv+6K9nnXXfGJoU2kimtBQBNALTAmShjAwqZaBqQdlHbwm/JStsdIu3kM0WPKSzlEd1fWunWQ9pLjBHLm8edfd3n7vGs1EZRgNW/dmgACoe/M9YJbgtw+2qpcgU8ZV9BSl0nZWtJjj7PHUMo5ztJtzmOWbf1mX77smikvhRcRJ1otJoIrZs//+Vcvcklo2/whoAkgFPvAx6UMC2FbNQPMDjJJIqasK7TscaZ81bJLv1dHTjjX0B3q74lFJnF59CreGmgi6EI27wVNAIEu4OYOYZc6V+BTLvgMHs+c1Rw8NvDs7752YGs2rAPzYNbYbG1CEsF5116mzwiy2Iy8pglgCJBLwMvRnsJ31s+GWjLKDkC2DhL8rjlincl0mb/ueZgC8lryLRlVrgr2Xuv48669fFafEbjgGU2bJoBAnCWYQ44ulRL0dlAxcHzBkwt+nM3t8ZzLNT5ULhnv0sCePLWcs+XlyloM+/DyYef48+NEcLm+fFgGXM39mgBqBlTUcYObLO1yLAt8O/hjXTLYOLpC1wiurqRLjp32PDLApSNJNXlN+RbREn6EDr6P4JW4IsCrBnprEI7cYJKaAALwWx2tjkJeBSgKeE7DQBF2TctgtANSdNryPj2uwKWsi+y5RMalo9snhQGORfqhNr01uEwTwQAYhw7VBBCKVB9yEqRydKmQoLeD0Rf41OENaMcDP6+sR4svOOM1QH8r/SiQrMWnX/r7P+Izh/KM4GeX6a1B/0AWjtQEUAhPrzMOAFSrHHujsyVf0FOqLPBdAecb45KN5+gj+Gc7c9E37/1DNDXJK/WEfPql33X0JRiXbNo2GbVa8a3Budderu8jKACqny5NAP2gVnGMGfD2mV5U+YKY/ZJ0RNY8+gLKF5xF85t6pSx6eNx70eLoP359bZKkRKDC0WdriArMz736KiQBvMX48gtDxqhMOQI1vKxbPsmYS7SiVYdP7vfQg2c6s8VfqeMLLtf6Q4JBgq/K+MIxfZz57bkn5qJo7r6Z6JSnvySabYd/e1HIeu25pO5ZE5zR+vQp+jFkgamvoyaActjiBLDvQx9SmgCKVIUGgGezd1X79BSNK0pMVfXF8ngWMD3Xiu69c0P0tmccGy1ZvDiam5vDlbp/O/nm6S6soFC0NlwfISVFnznl0GNeVaBCuzwI+D3mGbANNgclgOFt8OS5gA/34uDg7YNboshe9wiHHXwoiPCbmsHxtk3RHzfiI9PtTrQ9nhMsneQ3CHD+YpqL49cv49+gSU88HolnbslUtPbdl/vF/VNs0z1T2/TqKyyeAVMUNBVUlQZFrAuR4wte9pcFVuFYrMVHvh7n2hF4HTwTnOFzwf2XRbu2l0aT92zFlTn+p4oKpopXUfQQyjmnYTinkEeSU4t1KxvQBBcVtWCoqgv6gsmnqWzDc1yZzroDP56zMIpTi3junWpF7d0Wx1cBk+tmS2zlOP8JO8GioJ+GmTQtqcBs1HIZApoAyhBK+7ldy4IvUFVXLCTgKRwy77wFfnc1vUJnshXNrpjG08JOxERgx3mRrfF6mXD8se/Go0C+Z5mWbAQ0AdiIDKkeGuwy/aBBTz1lcxbNUTzWPzLTg68Eae/MRIBL9fVJIkiC3x+t8bxFDxMFIPuIpKNUHQFNAIGYcWMWB0WgIo9YJnA8MtIcdAYVYcexaK7yNfpHe3two99ePhXhh0aiyY3+l1KT4HcYnDZ59bNf498PXEGPJoACcIbRVbiJPROWBbwMKwveornLxpbdiBTppn2xfl4RbI8th2Q6sRGXBUbQJsFvNMii0mOZ/ohfQKZUGQFNAJUh8w8o3aT+obmeuoKeiovsKg/8Yg1FuuORrgeIfNluOzy0wzOCiS34WYF+7vmp3CSNfxON4LImgECouNHLNnugqpxYaLDLwJCgLbM1REfZigeeg1cES3F/wCsCJAIXlc0hYzryuqM06DEIAU0AQTDVIVQ1zI05EQWho8sCZhSBT8tD5umuKX4jD64IYPzE1l4iKFuLIMS5it6FKHJ6zCOgCSCPibOFm7W7YZ0S9TWGBI85W0ighOks1lTcm1gUMo8XR1zGzy3mFQF0zfQSgblWuxzPx8t/vQWwoQmqawIIgml4QiEBY88eEogcE667WGNxb2Jd6Fze4DcW2WEwL0oSQWvWnwi6wc+xmgAMBMOLmgDCsepPEtETsunLlIcEIXWEBmJymi2etc45QzDIzYeg7kyniQCfMTApCX4j6gveO2CO03IWAU0AWTy8NW648ODyqgnqyG718iHV7CrXXi6R2BQ6b1/Bby6biQBvM45vDfBegvho9rNs5AK7S+t+BDQB+LEZek9ooNmGhAZeb1zYTGFSiD++bBdAAwe+NUesj+/4w/QtvISoNDgCmgAGxzCnod+tyXHLW/gBHVsjrz7QxpNcfDTOdqas0ZxKZhWZOtgj+rJS/lo38LMTOQaYVkXRvZ228wSdlXKoMZq6c7MN8/PzBpoIDID6LGoCCASOm7XKhg1UmxG7Y8ud0U0vuTTa2p7JtI9zhV8iutOlx0W7Tu3QXUYVHDOB39WQFiQRsFqalOzBWicCmgBGvQ/Ss7lzWvS18GW4E/xC3AVC5rcIVwl8Lr8w+C18OgsHMmtlw61qAgjEt4NvrqmyIQPVbjNiVYK/Ks68QdILgP62kiaAYNzmb4sxINZvvj/a+/IX4VK3zy++2HpzdP/LfxW18d19JjEwZ2Znot0ufiY+s9u7TDdl8uWsjmj27ujul/4ompzo07Z0gn4CP2+btlRBQBNAFbRqk/WdD33tiHu8zr1s6b7RDtbtgX9E1tg7p3bCFUy2TWrxS+jLDop2m8C3+Xio6In+mvYeGDVYgtTg9wA/5GZNAMEA86zniaBgHYML9m+Be2RZ2BYF/uCrqXafz/mGbU8daxonHZoAgr1VFirBivoWtC68S/Vkzqq+079DyyiCLGObwwZX0yjscs27kNs0AcyDd93nYhri7uHl/w5Lto/+9IKPDGSt7yu4pyeno3uOGexXt0JfudDAH8iFtQ/WBBAIKUPTHZ6BCoLEiq8yQoMsaCpLaJi6OZUGvgV4Q6qaABriiBAzpvFjG8nDNqYiSRZ2WmK7tJkyrWim4A1GvApIqEg3JUR/uG7v08d0Rvugl/o2IsOrawIYHrbhmhFz8ab3/EoOz573b9kQPeTrJ+deBSiaJEkDSTjdNbMuWv/iL+JbuPJPEpgYln/lldHuE4u66iSFdBsKCne1N0V3H/NpvAw42LtxNPALQB5SlyaAQGCDN6cEc6DeKmL8Pt18+PY0FNvoDunemE7k/77e3hzDKPVs6F97hWec/U+yAEdqAgh1KgN7iLvMHZ5+4+oImkS7XMr75yrqiTHpE5c61iBTD7aKohUu7D5NAGPk3xV4E9AS641Aoeavabld3Q0c9O+Adxl26wWKM4kQA+6u8O7EOoKepkngF5ipXQEIuHdFwEAVGRwBMxiSKwD3dYC8DPirF3wYkzJEKSehao+RftqXlXHd/1Mqfhnw6I+n8kW6KW1Sb66yVxHMtZoaqpY18KsiViyvCaAYn27vXHz3bQdbt3skhV6QSWBzWrMsZthtdl3kesdw3b0xSalcd5Kw7HHV6hr41fAKldYEEIgUP9Y6X+HPS+6NWzdF5/z4M8bXXzPwXBbZ7Ul9w+yW6P1/cZLnVYDZ6J0/+Fg0XeFS3oRt69xs9N6nv34oH2PWwDeRrr+sCaB+TIeikZfvH7v7l/jGoP5eals7c2/0fq9lnehja6+LVhR8GMg7FB1342XA95h3DkXCgX0a+IFADSimCWBAAKsMd52vZXxRn8gM59j/zL37+v51mGvSoDfRGE1ZE0Agztzi9WzzwAkHFMs8qacub3SF3MP3jOkFfa9t0JLXtEEV6/hSBDQBlELUAAHEKJ/Uf/yg5+NJhB2waVqS7JTc8idGiyj6ZnCf7gtePgC86KBjogm+k496jHG51dv6Id/G7UnVr+XXoM8hOy8NmgDmBfZqkzLol0wvjo495FnVBlrSuauCtJ/f5POixzzHkq6/qkFfP6aDatQEMCiCNYxnYMYncMf79GtQP/8qsLhhB7/v6mb+F99sCzQBBPonfhPN0HfxXLRoKvlUnlyFB5o3FDHzbqCfCeLxvDcYIm4S+E3Aqx+M5nuMJoD59kA6PzfwiiUPiPa8+GUDW8TAS27mB1YVrKAoxnea3jFYT6igBH6ovMq5EdAE4MZl3lqLPu3nMmo+A6Eo6F22Dto2n2sd1PamjtcE0FTPpHY1adOPOuDFNU3CQGxaKEdNAPPgyXHZ0PMV8HTJuGA0D9un1ik1AQTCmWzI5O46cMh4iWFp8706DfrRbxlNAKPHvBEzzufZ3QRAg95EY/RlTQCjx3ykMzYl0M1Fa9CbaMxvWRPA/OJfy+xNDHJ7YRr0NiLNqPf32dJm2D46K1btxt/tHt181kwM8CK2xBtRZcCb/xphlBqRQ0ATQA6SXAPC79L25N1btqKntudkRQFt9+UsamjDPAb83MQdm9Y0FJZGmzV/p7VGw+I2brePvqQzs8Tdty22MuCbQNP3taM1b75U93IfztArgAqg3XXXwZNTa7a8eep+fIP+NrbdzLO7lCtAV78o8KcfFt255dg16+6SnzWqf54FrnEb28Y1efOSlZPRsZe2dzvnmMtai6aOnpvoRHPTrXZnAqdEO6W2WoiXjhvnoj6XqS55V5trbFGbpSM5r+OvtPMoJGsx+9gmdZFzHV0yolv0cpzIyZH5Fk9hJmY6kxNzrWhu6+xn177t8v8/Wgk/XHrpfP2eiWuFY9fm3phjt4x5NnjVKoT96onoj+sVz2G54gE7dKIzVrdx5dVLRsOaS/UqAoqAIqAIKAKKgCKgCCgCioAioAgoAoqAIqAIKAKKgCKgCCgCioAioAgoAoqAIqAIKAKKgCKgCCgCioAioAgoAoqAIqAIKAKKgCLQbARG9d71JwCGp4D3Ak+C5SMz/Bp8fpjjd+Arwb8Es6/q1+NjyIIn21f6nvgF7/LhL9DeVHXNeDgUvQC8CSzBjmIQMfiXgk8HbwBrMgAIoA+DiSdpO/Br49L8/OG+YQLaE/xI8Aow6Wbwf4M3g0UGRaWmIlB3AngPFmqe4blubhR+9+C/gP8dPAs2aRkqR4KfAWbAS8LgV2+8FbwFrGe75iSAc1J/0M8k8Q2P3E+yp3i8BvwlsE3npQ1M7t8BrwYvtEQvOGBpMQlOUm/EsY4vBWXAPhz8UrAsmotlAL8RXHZJvxEyX02Z4/cB3wXm2W6hbQosaSyJPtwPfEJqPf1C/5yR1k2/b4+2s8BM3I8FPx58Iphj7CCw6xBZMMQrtAelq7kRx082cWWDJgBuDP5oPe/vZRPw+EHwn8CkKkHMDXELByk1CgH6kBuaV28sfxv8A7CQGcj3o/Et4MPBTBL/AfaR7Blf/7i3c30mNo1bzyAJgIvbDsxLd7msZ9v54LvAo174IszJW4lDwDwL0RZuxl+BvwXmZgx1iMj9GcY8FbwczOcSvEX5I5j6fg9mAgxJcCL3UMj/JXgX8GLwevCPwd8Hc07+jC6PJB7viUvhf8Ru6nku+CAwseDa14Jp96/BIodiMPFLUTmO/CTwVWAfEROuKZSok8TbiieDiRPn+x2YCYT2hxKxfhz4YWA+m+Be5MPln4NDifZw/+4K5lXM3mC23QH+Gfi2tF60x82+kD0ic+4L3YeBdwfz6vhmMG+luJdFBsV6iAoHoTdg8APABJ0LpsFngkdBnHNP8ClgbhDWi4j2Meg+CuYlme0UAfd96OPmk3tcFAvpBvR+qkDib9B3CLgMa/bTJpGjrbyFEvowChIITLyvlQ4cuXZu1tPBlBEdKHYTsdnGtX0O/EuwjQOavPQR9NDHJI7jd/F9Bnw9mEQ7QvTxGQD9QZs+Dj4RzA1OEjvZLz6lTt5SvglsE2V2AL8bTNtY51ghmYd6qYfYnQz2PVtaib4/B4sOjnHZ1EY7beZzLyHatxdY5KXdPFIv8T/JaKTtPBmzXeYVLFmXNXFPnAtmIgrBGWLFVGRo8cik90wc6BjqoUH/Df4CuIgoy4VeAGagVaH3Q/h2MEHhbQadKESQeLa4TBrS47NxfCZYrlLYTJuZvEx6HSoPAlMPieuhg7lZTTv3Q52O3gzmWkg8fgh8K5i2sb4r+BSwOIrtdODfg38PFtoFhbeDZ8Cij31VEsDZkKfdMp74fg/8DbBJtGdnsKzRhYMpb5c5jutZBWYgsSxzssx5eSX2XfC/gkUexQwRU5M45jQwA5j6TJ1MyAw20lLw6+NS7w8DkMHDMdRzBnhdWmcbcSfvC6bPuQ9oK331EbAQZbm/6Gv2M5GeCWY7mSS6XoHyQWDBnOP+lPbjEBMT9IPBHPMb8KfBLpJ9TLnbwNxH1Ms655U5OQdxoP0fA/8BzL6BSBbWjxKOPQ78MLAYzE18OriIOI4bhWdiM4BdYxhkQlzsB8AE+nywLJ7OYuK52GhDMUO0j5fETwSzTOJmYSDTnmPAh4FlHbTvJLCPOIab8SwwHULiJnwHmBuHuhmUxINEfdIndscd6R/qWwx+L1j0sf5GsNCHUaBuEoOPG4xkJi5icRP4InaAqFfmexHKTwLbmFLmreCqZOrmFc7zwLuBqV8wpsx3wN8Fm2QmAGJzotnpKDMoqJdruRR8TVqWMy6q8e0U/SFzs80m4sM9xCAXXT9Dme3mHJ9F/TdpOw454rqYSE8FMyhtX6Ep9sveOHKeG8GfBLvITAB3Q+BcMPWTxHcsu9rYPhBx0/ZLNO5zYFkADZwGM5AEVBRzxHHc5CfkevIN9qb/E0R2ssQI/hesNrtKB38NzAAQ4iZ4EPhW8FPBEhgM3tPAXI/pAFS7xHYG4w/ATwBz01HfceALwS9L69TBuX8IpnyRPibDn4IPBRdtYnRn6CGoie07oHwR+OlgJjzizDlpB4ln2GVgbu7PgteDq8wF8S6Za/kFWslCe6HApDIDfmbKp+BoE7H5Jpg2sOyjdeigXzjnCrD4Zj+UiRtpe/DZcan4D/0kdBQKV4P/DEz/UC+ZfgwhBj+JY5kEfwkuWge6c8Qk/w4wk/ouYCZH6r549qAAAEAASURBVGBi5Jrp21+DvwK+D1wrDZIAaAjBYkZ9NSsg1l8I3g9Mg81NgmolYibkhqVOAvI9MDeKbOh+dFOXSS4dbAsNChs/cb4cZS7XPNJnHm37zD6z7NO3AUJyduVGXwrmLdNnwUyerkCzbYVYjmiXb86cMBo415vBHwJLcjoA5ZvB9nyha8bQHIlNPPGcBmYykLacsKeB8zPYSBxL+04FV7Wr6ryYokvvRkl8sxfK/ydl3qKx/WDw6WDaxno/V2wYlicqG4S46FvAp4CZrUjUyYx6PvhpYFIImCLDBMLgZ53MRd8EviIt82zAM5sQnS6Xw9JmH6nnZWDqEmLw3gZm33fA0kfd7wEXOZRr5OXuE8CC4WKU/wFM+jSYdRL7DwfvmJZxyBFtYD+vnkRfTshooDyJx/8Ei+1s43huEG5inl3OBv8JTKIc+x/ACihkLsqdDKYeJhcm/KpEO5mQijCtqpPyd6Y6qZtr5fo4RwhDrCv3E5SZLGknk8H+abmKHgypTOJHDuQVAIm++iqY/uPzDvqS8cW1UZ42nQSuhUwDBlVIXU8DPwdMI4VYZrDxMunfwb8C89KT7cvBjwDz0pzZjsFn2sQ2AsAgN3WiGj9M4yWmKf871D8FpjyJ874M/FCwOX4x6twwJv0tKrRFzgYC+AfR9kdD8IkoHwvmphPimLPA94I5D23i5fgqMNckxCT5eTAvO4UegsJrwLTZXItto3079FpRgOMbwA8AS0DThjvAHwPLGRjF+CXb5+Fo2r4GdQZ2GfEydXswbSQ2xIRneNNm6Xsa2p8Lph3kjeAzwUIyH/V8B7wazLKPeIYkdtT1ffCVYJF/P8rcByTKrALTDy67zjHat0P5dWASZemvM8BtMHUTo3eCTT2oxjbsiuPbwZyX/uV+ZoIUoh/+AnwEmGXxpfiH+qmXtzNvA3NdbPst+FNgyrGNRDn2vQ8stt2C8oXggcle3MAKoYDG0+B3gZlVZbEolhIXzfG816HTaZ8AgWKGKEf9dCovfVkvItpBp68C3wNm3UWcl5eUZfpo1xR4NfhfwD76K3Q8FeybT8ZRF5Mk5ybJpklqxW8FFpx4dmbAh9hO7C4A3wousw0iXV/Yc3Cs7CPxH+VZ9s1RZwLgWvcHvx7MtQsWPDIxS9CYmPwU7ZeBXcRk+kCwrInr41hbF9e3DMxEICc0FDPEk8yeYI4lUZeMM09AZ6KdyYty7CfJPmCSMW35Fer/SIE6SBTXoculg/plQQeifCiYzuLGYDsddhP4l+D/AZPMMUlL+F9eQv85mBmadDf4avBPWKlAdDidtR/4yeAHg+kgJprrwavTcqitIrcbxj0DfACYDl4DXg3m+klngpeAKW8nADQFkcz1cEg/AcwrA24sJtVrwP8OZlAMQuYcT4KivcD0p+DNACOJXFIb7l+Zi3vrCPAjwUz4PJP/HvxD8C1g8S2KXhKZ/SHxRPA+YPE/ffV9sJlsUC2lh0CC/if2d4BvBpsk9nP/kncBE9O7wNy/14LFLhTrIU6qNFwEDof654BPLpmGG+xsMDcIHU/fvBWspAgMDQFNAMOBlpn6SPDTwDz7CvEM/OW0Ihmf1deC9wZzHInJ4CSwJAO2KSkCtSOgCaB2SHMK7XtmCvAML2d50wcMeNKpyUH/KgLDRcDcfMOdSbXvDAj+FsxnIULEn/eofP7xeTBfCVBSBBQBRUARUAQUAUVAEVAEFAFFQBFQBBQBRUARUAQUAUVAEVAEFAFFQBFQBBQBRUARUAQUAUVAEVAEFAFFQBFQBBQBRUARUAQUAUVAEVAEFAFFQBFQBBQBRUARUAQUAUVAEVAEFAFFQBFQBBQBRUARUAQUAUVAEVAEFAFFQBFQBBQBRUARUAQUAUVAEVAEFAFFQBFQBBQBRUARUAQUAUVAEVAEFAFFQBFQBBQBRUARUAQUAUVAEVAEFAFFQBFQBBQBRUARUAQUAUVAEVAEFAFFQBFQBBQBRUARUAQUAUVAEVAEFAFFQBFQBBQBRUARUAQUAUVAEVAEFAFFQBFQBBQBRUARUAQUAUVAERg6Aq2hz7ANTLCqs2pi9epoYqEvdfXhZ7SjVquz0Ne5La1valtabJ1rXbVq1QR4jjp/9q3Jg3ZuTe0315mrHByzOaPyLTmRkoa2q7/N1klXj9XmHB1tmpudwOK+fWan01rVasXrtgZqdQwR0CuAPp323O+d9cBFM5M/mVi26EHr718fbdqyqT0zx+DN5oBOtoreXgPBl0gSR3SsAaa8mNrTkLTYY9hqy0SWXqdMPC43kqLRPTNbolOe8KLJ1xzwzBaveFa1kuQXd+qfsUVArwD6cN0x337vv22ZbT/l+nt+Pze7di6abLUiBDBOry0EHkNawhmB2LHq1nx2gNvB7ArHsjGcIjcOCcBsM5NP1qSsXNyHsbfNbo62bNjU+chvv9N5XevI1spLLpm89Nhj3ZcLWYVaazACmgAqOueF3zln6w333tba0p7hyAkGPykJLgmeXqhJeyzUlZMax/Vk2Zqv92SllJfJ6kj0iHRyzI8Rm4vl4l4uMbmCaG2+f2OSBA48ElcCHVwJ6O1AFsHxqi34B1d1ugPBf9t1a29pbW3PbMuJs5sEGPy8HagTY9U1WgS25Y0cjDQvd6Odbvyr6+/+w54AjA/DtnVqbbmftwPfxu3AX+rtwBjvBs3eAc7jve79rZnL2532Nhn89nMJQoZbivRK4Nsd4qNXAgEbqYEiegVQ4hRu7F9ftePDrr7zN7kX+h0P1ku0jaZ7hFco3STAKwF9JjAa/9Y5i14BlKC56swounfjfX831263GfAm20PtB212/wKt43aADwa/3eEzgfh2aYEudCEuSxNAmVfxZp/7tm581mRrInncXyZv9NuXziM8MxtWDL+IdXWvBPR2YPh41zmDJoAANNfPbF5SJMYzfz9n/1rGNCerxEngw/GVwCq8OtDRvVW0aRrSp04KcMTmuRl5w15O2hfE9tk/N9DRYI8JiW3f/A71o2hKksBvktsBTQKjgHywOTQBBODHd/Mx0Fz/XMPtQKZMSDC7dA2rbXB7vBpamzds7Hy4mwT0fQLD8mEdejUB1IGiocMV/EZ3tzjKM3eoTV3jBi8kSUBvBwZHcsgaNAHUCLAv0LznSmNue6xrTEjScI0zpikshugvVJDtNJ4J8B2D+kwgC08zapoAavADg9cOYFHrCsi6As03p8w96qNjrVYS0NuBUfukbD5NAGUIoV8C3Hf0qXAERPwcwZZvWiCb9tVgW/w+AXl1QN8nYKI7/2VNAEPyQWjwI7vkLMi3xG+9zcmFNLgC2KU/RFe/MpiveyWQvE9Abwf6xbLucZoAakaUwVUlwKrImqbOb2D3ZXU3CeinCE1Pzm9ZE0BN+BcFPu/5Xff9oUHsGluT2V01o5gDkxlJYJW+bbiL/vwVNAEEYC/BXXT0qfEFVmjwu/SGjg2Vc81Rta3CNUE3CejtQFWU65fXBFA/pl2NVYK/O8gq+HRYYkOpuhJITRPFSeBDv/lW/AEifYmwJlT7UKMJoA/QyoYwaH2B6wuq0DOob3yZTUX9PlvdY0ItdY+WVqwjfnVAkoC+OiDIjPaoCaAmvCXoi4LJF7y+kCrSZZrtGu+ayyVn6smUKwlnRgZXMEVyJXDDt/RLRYJRq1dQE0AAnvymXzPAXeUiNQxGV0ByjC/OXMHv01E0d799rvl9unxr8Mlb7fHbhpMrAf0UoYXN0KuaAIIg7h+moqD1BY4r+Hx6XDpcsi45Lt01lx8Snxb/CFePwz69HXABNYK2/nf2CIwb1ym4wYV9a/CFUpWA9OnwzdnkdqxFbwfmwUGaAGoCXQLecXbLzMCg9QWuL/jLdJoTuGSHOp85+eBlvR0YHMNKGjQBBMAVfx+AcVY3g13KZWqKAp9jqwa/K6hdwV9mVwP7u1cCyTsG9W3Dw/SRJoBhopvqdgWrOW0dwW/qM8u+uavOaeocpByYpJIrAbw6oG8bHgTt8rGaAMox6ktCzvi+ABSlVQPRpy8wsGTa6kd8Jar948c+W6ord47Q2wEnLPU2agKoEc/QoJcpqwa/jMsdPZHoae7zdmMiSn79ODf7MBuSVwe6VwJ6O1A32JoAAhA1A7uoHKAqFmHg9xP8VQM61J4QuQdOLYruXn+v9/0MITr6uUrBmuMrgQ92k4B+qUgI1qEymgBCkapBrijwqb4oQLzB7/g+gViXx96qiac7b6cVXXPrr6JW5teQPZPU35wkgfizA/opwjrh1QRQJ5oeXSGBP4rg95gX1NzGNcuV6/8QTUzM25aJXx3glYB+ijDIZUFC8+bNIOvGWEiC3nfGlaUVBT5lumdgGZAefeN88okud2+QLjwE3HvJsujKn//Ya5NlYqbqmyMj5KkYVuvtgAejfps1AfSLXGacGe5JOdPtqDAgioKCm97Y+BkNvnE+eQ4uS0SZCTyVGWi5ZtNt0dp19xTa7hleV3NrC353IHkmoLcDg4KqCSAAwcE+CpSdoCzwKV0YyJ57/uwsds2vsVIy4a8jTrWiv//5N6P7NqwPTgK+OWwrQ+tYTfdKQH+LMBQ1t5wmADcutbZK0IcEgj9UkRgKgr9wnGc1Rfo8QxB6rWjn7ZdEH732G9F//8/10eTUVKFdXj2BHQXrSpPAN/FmIf0UYSCcObHKv3ib07ANNDz486/4PYB6IJYanjCxc6tcdhds9BjhomAtGltkg0+nT19XngJIRotno+iem+6NXnLYU6MD9t8/mp6ejl8l6Mqle8Oup81BB58tMhj5qLN4u6Wt1+1/JEp4qaLVKhsiQ/UIBDQBBGyDkATQ7yYP2a1FuovG1xn8hCljBydGEmC4Lb1za3TXvRujTVtno7m5TrTXkqXsiimxgRVuNTmmfRAqspFS/g3aiuY4CQTaUTS705LF19/0rksPRT2dOZlD/xYjMFXcrb0xAtjUOLfUSiG7NBNwjtmLdBQFVplex1TZ4KdAjAeiDceNu09HO04tjZYjEpOkgMbYOPwpNLKok0NL+tmNqfBYorWxNbeZZilVQ0ATQAhevPAv3oshWmKZUDVlQVqkpyhwivT6dHrHxEkAoyZaUXu3xdHk3VsjfHlSFytekfdNUOuzR3Rm+jMVkdBjGQKaAMoQqqG/0t6ML4v9k5bpKgr+oogq0+u3CD1pnLd3WRRN3osXC3HFxLmKdbLXnyCSpFPQbxtUPJktrfUUAU0AIVuBZzX/XnRq6Gc/es+06QxlOguDHzrK+l0LKbbJsgjV9k7TSAKz3STg0ll7G32jz/76glUTQABsss1dOUD6AtR4RYqDLBlWNk9ZcBfN4dNdNMa/GCaBqWgCSQBP6TxivvZ0renDPc/gkisL3yhtdyGgCcCFit2WPgMo3rb2oPJ6SICFzDmM4A+w3ivC+GUSmFznTgJlaxq032uYduQQ0ASQg2S4DSFBLxaUBQLlhhX8xXb6Lev2oNBejiRwXzYJlNuLRbkutVJQuvrTeu8Q/haN3hgtaQIYwR4oDqa8Af5NnpUtDya/Jn8PkgpP4XUQ1LR3RBJYj9cH49sB6i2I7njOEJk6jFMdREATQM37YJDgqRJ28xf8fiudPWhsbz8ZTW7AB4q9zwQSJ8TYFeQHp37xX2GnCOnRRkATgI2Io162cR1DKjVV2btlgc+Ji5JQlbnyi+h/9Ox2E0gCGF+SBPJzBrboHUAgUFkxTQBZPEZaqxJOIYHPx+NFcmXzFSUOai6i4l6MhEB7Ga4ENuJ2wHGLMdDZv8gw7StEQBNAITz1d5YGimPKoqAW8eLgLQtfxmQ/liWzl400dTMJTGxiEhDLA3VkxXM1S12uXxvcCGgCcONSa2u/mzMk8GmoGWD9GF4+vt8VxMblTJpbiiSwuZcE4vn7vffPadeGKgjonVMVtEpkGSYuLhmW62bg1xX8Yk9ukrRh0OAvSw2+/rklk+UvCPiM1vbaENArgAAofZs4YGglkdCgp9LywM1dZedsKddRvPLi3nIbmQRam/E+gQIqm6M7dIBbmK6ObbCgCaABTq8S+LzECJEvC5xhBz/tLCOuo4MkMLGldztQNkb760VAE0C9eAZrCwliW1l50CYjymKvXE+xhuJesSFEKpGdW8wkgE9cWUOsqg1Ht56sp+AhQldSCzYCmgBsRIZU7yfgxZTygE0kQwKmXFeIFrHMfSyfI38VM7d4IprYmk8C7hkcrYOb7VC68Js0AQzJx4MEvJgUEkhdWSkUHMv1lUdRmUT5HPngF5PnFk1ErTQJlM0jY7rz6eNsgaTSURNAAFx1BHPANF2R7qbutvgLIYESpq9cU5lE2Dz+tbCngyQQMQkojQQBTQAjgbl8kn6CpywgOWuY3nJN5RLla4ztsW/0HcOYBFoz5UkgXpve+jsQDG/SC6dwrIYiyU0cFqS96RmMIQEZprdcU7lEWKIJuZKSuTrTxVszbG09zLTkRkCvANy4DK11kI0rwVFmXPgc5RrLJeoLfntdTAKtWVgQYoQ9WOtBCGgCCIKpTyGe3fscag6roqOJwW+upajsWmeH3/ndRo/RGa9RL/2LoAzu0wQQABU3XAs/QZOjeF8aOzMnMFhDFc3hgU+byjWXS4Sd+ZPZyrUVSXQmjSRQJDgY3NvkaE0AgW6vFmCBSh1i/ezvcNvCtIdIhc4Zcg0UNF+aBJzzMjeHKHHgva03aQJoyA7oZ/86g8G7nrAZQqRC5w0Jfq+5jo45PBfUb/92ADNAkyaAAcAbZGhIoPn0hwZgb3zYbEFSgR+6CQ3+oDl7C4m6twNGmxb7R0ATQP/YVRpZdaO7lM9r4MOg6vO7VtFrq4KJObcmgR6Gg5Y0AQyKoDW+yqa2huIbWlvR0lb+9W/Z/OZzSJnHfDTJtl5dJJJZsn29mbNSvXa7FNvQU253W/We1vs7bf56b456ErmuXIOs3+zQJGCi0X9ZE0AAdlU2a4A6p8j2rcnoeTsfHB33iGejH5FmXWrThuD4c86QbzR1mmVT0lw75xc5aZc2jjHLUj/3ms9HP9r4x2hTp/ydfRxjkyv4RSaTBPJ5U8T0WICAJoACcEbZxbP/ikU7RPvs/CC85DjKmYc5Vyv+2XB87UdmEkkemcY+K0wCQ/um4T5tGqdhmgDm2Vu9M1wSFhOIfud7DubZzn6nx2oyQ6sEfw+bjIp8BT9Pjh8dyLdrSykCmgBKIapXIHhT1zttI7QNJfjTlXUWzmXTSH2lCWBYcNf0NuBhmTdqvUMNfn0XUN/u1AQQAN22fNYOgKdUpErwlyqzBELfb2AN02qKgCaAMdkKS6YXD2TpHK5Its5udepYPLVooOcOTJBbPLqdExY0arItAGcIXZoAhgBq3SonJyajxf/4HDzo4ivqfTzsai2K/maXP48+duQpOdP4wHHfS46Pbt/0+0DdPJ8b53S8fPln2x0cfe/570Or0Z6bqbyhavAPOl+5RQtfQhNAI3xsBZXDpgOW7h2/lo7f2HX0ZkIy178DgnS3xTvk2qXhsCW7RtehssWjW+RcAcc3Lh2wZIWI9H3U4O8buoEGagIYCL5+B7uDuB9t9Wkqnt0V/MUjwns1+MOxqltSE0DdiOb0DSdEh6M1Z3zc0KTgL77WcduvrX4ENAH4sTF6RhluxrSOYr+WWO8sdmh2NzUr+DX83V7qv1UTQP/YjcVIXl73E8T9jKkCSNXLfuoetk1V7F8osvoRijHyZNWzfz9BRjiqBtoo7Kpq0xi5dV5N1SuAeYW/N3lZEN3Y3oTI5EuAJZLxtT5leu/BvwuvAmydm+lNZpXWt7dEt1J//BJjiX5rbATdG9vu9xfYoqz3k5Q0+F1I1tOmCaAeHCtpqRhiUXuuHd1z9IWV5ggVZkB+9bnvCRX3yoUEqQa/F75569AEMGToqwa7z5wJxxeF+GSrtg9Tt9iiwS9INOuoCSDAH7zw7l1QBwxQkQwCGvwZOBpV0YeAjXLHwjOmn+BfeCg0d0V6BdBc32Qsm56kq+zrELnBMNvNNiknjw5n27MZnVJJdLMmenrjRCY5sp99cmRrUp7x6KZEVQp5nlBVp8q7EdAE4MalUa38MNCyLx2H2OOHgXzBWWAyntQfv+KQ6PxnvDknxA8DPfOKt0Q/3nx7f7qjiehZ2+0Tffk576788mHOmNiCPtbnUqRtQQhoAgiCabhCvEzu8Bcv4pfw3HMdMLV94YeBXKPkTMoPAy2d9H+ceMXU0mjvqR3xYaDeJw1Dw5AfBlo+tcQ1feU2sbfyQB3QNwKaAPqGrr+B3nvikohjN7kXov757UBKVBdPMAftortYMjsvx1SRz47u1Wybez2BpTqMCJxqIYlpAqjZm94Ar3kel7pBg2g+YmhQm4kDL5zk6YULF23zI6AJwI9NrwcbrI6N2lNYX6kuuwYK/oJbl6KV1mF7n1MXmbVN9WkCGEt31xE6NSwc0devJf2OM63W4DfR6K+sCaA/3OZhVBJsdQROHcYPcqtTxxo0+OvwYoSfo1MaCwSW4kn+BO50fV8JVrQIjp0seCvxFPq2g8zigMd58a0Coy+96V6EsRwfSnUEf+hcKleOgCaAcozmXWJubi764lNOCghPt6l8rb/3Zp+sDM/kZz3+VfjAkbwGkO0vqzEP8H0KIYEdIlM2H/v17B+CUpiMJoAwnGqXygUD3wfgIcruveIB6LWfdcsYs91s65VNCXuaB+60F5ooK1IyzpZkv90nY2xZs84V2OPM/vCyBn84ViGSmgBCUBpQJmjzl8SH+xN7ruAz28yyfxH8PcJe8FOuaFxRn2uOkoW5hnjaNPg9wAzQrAkgALzeW2QChFWkdgQ08GuHtKsw/OlNd4gWFIHRIaDBP1ys9QpguPjWop2X/2es/mjEn/cKup2wZuUrAPtuv2f0sse9wOrBxT4u/9/3o89G67Zu6Ovrujh+t8XLo9c/4W9qusvvmajB38NiWCVNAMNCtqregltrBtm37vl1tAXfCcj37FelZXiJ78iCQT+/95bo+s1ro5nupwEKhK2uxUguhy3jQ0QuoLptlrpuVYO/C8VQC5oAhgpvBeUlsbMJHwXeiAQw22eQzcVfKOq2Zwa6N3Rmo8196F6GMbMFut0zFrdq8BfjU2evPgOoE80+dTH2OwVXAH2qHcmwfm5JigzT4C9Cp/4+vQKoH1OvxsKTfGGnV+W8dfQCv77MpcE/endqAgjAXGKzaKuLTIC6kYrwnX5xsNZoYC/4a1oKbKvRvJqM2jbUaAKo4OehbtKi7FLBRhEd5MM6osM+1h74mEDP+jbKo61rAhgt3n3PttPEdLQsfhXApyI5jTJJxbnESChL8CrAFN6v76Ml0L3LxCLvA8aiwJ/GqwCLCnT75mS7Bn8ROqPp0wQwGpzLZym4vODZ/HX7Hem5TE4Cv/vuXdHDBJCW+TLiiqXL3TZA5ugHPynajJ/36ga66LBHiE45op+6l00v6Y21x3jqGvweYEbcrAlgxID3Mx1fwjv6UXwl3zitx4okUs12s61XNiVMGxj0z374EWiirEjJOFOSZfaLnMjIGFvWXdfAd+MyX62aAOYLeXvekjhq3oeBSgy214e6Br8DlHlu0vcBzLMDtonpcbGgwd9MT+sVwDz7pfu0fm7hRoncLAwT6n7eIj1Me8ZFtyaAIXuqG+Ah81S/qg7RuuBlug8vF/xK61+gJoAATJMgZnQO71zGp+mTeLlu0dQ0HrU1NxMQgWDrIJh8k2EAyH2KaPD3CVw6TBNAMH7DC36acNfcTHTarVdFp33ha8EWhQkO1+6MDa6pppZHy/FegeCkkVFYXNHgL8YnpFcTQAhKI5BhgKxoTUUT0zsPPFsSh65oHFi1U0E8k2e6/r5q1DlNt1EDvwvFwAVNAANDWK+CQQJmPgJj1E/352ON9Xq4Wdo0ATTLH5Wsmc9gGHXgE5j5XG8lx4yRsCaAMXIWTZ3vINDAH7MNU2KuJoASgOa7e74Dvrt+3ON7bvO7IsMoNGb9w1hcA3RqAmiAE2hCYzf6PAV+ozFpyJ6pwwxNAHWgWFFHY4PdXMc8Bj7NGAuMTLzGtKwJIMBx3IyuN+csxE06H/f4pgsWIqbm+ppW1gQQ6JGFvjHnO/DphoWOceBWG6mYJoCRwt28yTTwm+eTUVqkCWCUaDdkriYEvUChZ31BYn6OmgDmB/eRz9qkoOfiNfBHvgWcE2oCcMKyQBrn+Um+D0UNfh8yo2/XBDB6zIc6Y9PO9OZiNfBNNJpR1gTQDD8MZEWTg54L08AfyL1DHawJIADeVhtbeHIYn2gPmNwh0vSAN00eWfDPzscblc2VjmdZvxQ0wG+trTX//G3AnKYIA95ks6+pZQb+yIIfIEzOzLWbikWT7dIEUOadVasmJrbMXYm3Ag7/FGMFugR9mYlN6h914Mdrx8XZxKbOd6NjV+p+rrgZFLAywB5+fWvy/vYn8BM4/t/WKtNh9Utg546W3DhV5yXwBaCJicnpe+f+IXrEI4afpGXOBXJszo1twwHd7cK/7sxM6/6y3TTKy3x7bqlPbexEa1//Zd3LAkiFo14BhIB1ycrJaO3mN0B0NkR8W5CZ1zO+CfBcNBdt2HpURB8pVUZAs2YFyHY/+5hNW/ZYvKjV6WyzibMJZ3xxWacVtRfdvuXWNaddsa+06bEaApoAquEV7X7+ys7WnafaeCi4TZ1xmhT4scs60cz0XVun15x6ue7hinvYFN9mz2QmCBXKrTtPvrSFjXfn5Hq86jSKVwYqGFe/qFzoN+TZB0MdmE8Be/jgRg3+wT2u2bNPDHc/7+gnRe3W9ztLphbNTXSiuenWbPeaoNVC5OACtYiKZFx9rjbq97Xbc5fJGf1JuKdBb7THKs26Wbbns+suWbaRTKxsOUp0Wp2JrXPTE3OAdPPshvZU5/H3nHzFL+Ox+mcgBPSdgH3Cd+e+kz+Jjr10MYfvds4LnzWxOTqk1eEvfI4vNfadNC0k04mJa9acfNmVMbor9YFfXbus+CxV1ywLXQ+fQF+5M26nrlnoK52/9T1z/zkk3MbmqPkDRmdWBBQBRUARUAQUAUVAEVAEFAFFQBFQBBQBRUARUAQUAUVAEVAEFAFFQBFQBBQBRUARUAQUAUVAEVAEFAFFQBFQBBQBRUARUAQUAUVAEVAEFAFFQBFQBBQBRUARUAQUAUVAEVAEFAFFQBFQBBQBRUARUAQUAUVAEVAEFAFFQBFQBBQBRUARUAQUAUVAEVAEFAFFQBFQBBSB8UBgFD9vxa8eL/v6cf2FovHYL2rlAkNgmD8MwqCeA+8Mfjb4MeBpMNuZEPgjGvye903gq8FfB28GSx+KSikCrgQ61j9Cop5tBgKujTWoZRLAD4eiV4CZBBjoRWd5yjA53A++ALwerJQgQDxPAD8ETAyJJX8h5ztpGYd5IdolvhYDWKcvlcYEgbqvAOSs/16sn7cX8ksuRcFPqGRjL0F5Ffi/wZ8FKyUIzOKwFSw4Edf5ugKQoKd/HwE+CMy2DWD67Q/gKiT6qoxR2ZoQqDMBcHPuDj4NzMt6OlaIZwVuGAb4DJgbehGYY3jZz81MeTI398Hg94DfDlZqDgL0F314KngH8BawJCL67nDwUjBv6T4HZpv0oxjXd8HxnayAtgO/Ii7pn3lBoK4EwI3xAPBbwHIfzwXR+dwwN4C/Ar4DbNOBaHgxeAWYyYGbhnwbWKk5CNAnh4BfBubVCFkCnEchJv+HgT8EfgNYZFCMiXuCe4TEfbNQiWvjWrn+xt4W1ZEAuECe3d8KFseiGC+a9/KnsAIyN0nSkvy9EYezwNuDzwTzrHIr+GNgpWYgQN8xQR8HliTNzc2ruN+C7wPvBt4XvBHMzc+98BHw68DbIu2FRUsCaOzJrI4EwEWeCzYv+9n2U/AVYCG2uUjaeQ95IvhvwF9wCWrbvCFAH70NLMHPffM58M/BJCYI8eOLUX4sG0F8qPtm8PtZ2YaIeHAv81aXPyH/RnAjadAEwIX+JZiXg3I5x8ud68Bm8KNaSrKBLi6VVIFRIkAf8zZOLmnpp8+DfwkWEt+x/iUwN/7jwLxCeDB4WyTiRpJjUmvY30ETAB3/HDDP/iTWmQC4CfolczP1q0PH1YcAN/CjwAxqSQY/K1HP5z0HgD8O5u2BUkMRkLN2P+ZxLLM87/mEplE4GzwfWc+3Fl+72Ow7cg2uddStz5xD5pSjz7aydpeNg+g09clLu2U28LZwfZmQ1c95BA8ezXktUW/V1jHouge1x2uoo0PWPLI5B7kC4Jmel/8m8UqgqtPN8f2U6XDachD4meDdwXx5iYlpDfj7YF6uEtSQqwuR4zsYnwXmmYz6eP/LtV0N/h64KvFB6XPBfJK+PZhY3Q7mrRKPXMeOYCGecXkPXYUEi8Mw6ClgroGX4dTD2zK+2zI0gCEaEzH7E1g2JRv5EiCf2RD3IirDW3SK3ftC2ePB9OEd4GvB/wsWn6DoJdHBh29cP4/yQJl6uBdEBsUgegSk6K89wBz/P+BrwFx3kU1l68bwDIkunkD/DMw9R98JBr9GWWRQrI+odBD6EAZvThUQFG6wH4HLNkY6pJbDk6HlRWAGPIHnmgQsqS9D29fA3wUXEcctB78dzM0iD71Q7BJ1LgXfDP4AWOZCMUfSdzJ6HggmVmyTdupiYmAwnQfm1RMDlPj9HvxhMOkV4APBtIn9V4GvBNs4MwE+H0x9nMMkzrUEzIC60OwILH8QcgwoEpPKKWA++6HeUKJNK8AcS+KGfzP4YeDXgDeBZU1iP333D+Cy2w4G/XFg2ihJTnQQY871SfAvwT6iPNfzKjBve2iPkKyTGK4DvwvMNrGXJ1PGAxM3SeKCMtwvJhF/+oFj6VP2vxNMXAVjFGOiTcTgB+CvxC01/iEwg9D/xWABmwB8HiwADKI3dCwDlY6iDQRKGMVumW20aT/w08BXgX10ODrofOqj40SffWQ/rwoYbN8BkyhvEsewjUFMbOhs0YNipkw/PBPMhEM56r8X/F9g0mPBDBzReQvKN4HNOU9FnYFUhAX7eJXBK7fvgkOJ8zKAHgiWJEQdDwLz7Epiu2lP3Gj9oR5u9ieDKUtmkL0YTB+5MGL7I8H3gHml5JrjjWh/PJjrI1GGc5FEnn08m+8P5lncJsGWQbwDWHSJHPvJtJH+fA6YyeR+MOfg+o8AMynSZiGOYd1kJrO1YPbtDT4NzPmoW2ynPiGO3RP8JPAPpLGOIxfSD9FwZkITJG5iM2MW6T0FnXuBzUUWyRMUBsQZhhBBo6NMHSwziwoxoAge7WUfN/G7wO8Em8R+bqBng7km1kmcl+uUOh20GUxdZK7378FvANvEsQx+ylCWxPHUJ3XKSL+JJZor0ashvSNYEjr1cq2s88qIyYp2k9hGO1aljEMpUd/XwHunTPuJ7YFgrp+6vwe+EkwiXhxTRJThmplEeeRe5PgbwdwbTwdvDxZ6KQpXS8U4vhzlPcHUJ/j+AOXrwdwfTJ6PAhNnyuwPfi7462DTRpYZ/OIPyhK774P/CN4D/DTwrmDuKZ6pT0pZ9NC37CMJ3uxj0hNinfiRaO/JYM7D+bh3fwam/dRPW/8KTKLfqGcl+CtgmRPF/qnfBMAZueG4ACEuIJS4OAIkQISMozNJHPMEMOeX8QSDazkHfBdYaCcU3gYW0ClPkJm9v5G2027yi8G0S2gxCheDfyoN6fF4HA8Ay3q5YTgv5zHp3aiIY6X9BhQ+I5X0+EIc/w+4H4fShr3A+xvj6RO2nw7m/EK0+fVgnqGIAzcrceT6TD+i6qWPoodnoReBqZt6mAh4fCb4eWDi/3HwWnAZcRyD/w9g6maddBP438FPBB8FJhFn6v86WNa4B8oPT+ts47iLwKKHmDKgeCQeTChiK/WY9FpUZE3cSxeC6S9iSWZi+hGYOs4CE8fN4HeBTwUz8F8DFno/CsSGQfsGaTSO1HkIeAOYZSbsE8GyD3i8E/xj8F+DHwXeDswEJDIoDkYCVD9a7sOgSWMgHTAK4jzHgsV2gkFnELw1YJN4r8bAvB8soHEcL1+lziMdRGcKMUlQ39XSYBwvQvlbYBlP51HnfmCWyXuCGWAskyj7L+DPsGLR5ah/yWoLrVIvN67YwiM34ilgBowQ7eAG/rg04EibXwyu6rf/wBjixSNxYrBwXupjAt0BzIB4C5gkGCS1/F/uIQY/ibaQZT3c/Awi1qmHCUvsZdvrwEwgLHNu+oZk6hFdDFr6hERfHwcW23g8EMw1UJ7+IF4k1k2bmCRWgWk3xxGD5WkZh5hEr9R9xwPQQf1krpNrMW1nmXQx+EowcTd9iOpgxAX3QzSYG8wcz423Gzhk8Ty70hlFTBkXPQSNdLYQM+w70grtMknqdD7lhGj7YWCxf3+UTbu5kTiWDnHRVWjkLYno55HBxCP5ZWBxHuv3gH8IdhHlrgGvBVM2lGgvNyHPCkLE83Qw+6hL1rQfymeC/w5sEnEgnoKD2ecry7qY0N4EPgP832AGAolzUmZ3MB8clq3pk5Dxzc/276Q6qJfrM4lrZzvPnueDiQfHuHgK7Z8H0x72P8Yo89ZP9hR1/afRZ+tCV+x7OakwcJ/LxopEu28B80im7TuBSZyTbSZdZVbqKhOUuojB8gzwlwMUnhsgw0udt6ZydBoDhPRUMDcYQeLxenAZEUyesR4N5jjqewqYZ/gHgsX5KMab7FcsFBD1fQzMxEMbWN8LLPQgFBhcJDqWCYUynNdF7Pss+CSwTwZdGeKYh4Jpu+i+K5UQHc9DnT6hDNu4WUm0eRmYgfuHtI5DJaIOEgOBZ6gvgA8Avx7MMyxx5vG94NPALmKSv8HVkbbR5lvAxJBl2a/UzXv7rWCunbYcAaZcEXG8+J9yLHPsk9Iy5/gj+ChwGa2HABMS5z8QzLFViPNeC34FeCOY8fNO8BrwD8FMQrIvxU401UsCaL9a/wcD9wXTQPLjwV8CD0rUxQAlSCwT3N+DSfuBCTqJx5+kxzIH/BRyh4JJHMfAJx0AJvgyzx/YWEKci7cXPFuIk8z5qU+IMndLxXPk2DvAPIuKPo9opplYcCzXQ6yYDJk4/z/w3mAmIVMf10jZr4H/HUxifRAy130zFPGq4BTwCjB1c4/tAyaupiyqpQFLGQYH9ZhjWZagYx/X/kRwGZl6eMXKJMgEthTM5Mh+XsXuAi4jwZJyIfIufZzvPeBTwfQVbeLtxHPATELcD9wX3wPzBMY5udbaiAr7JRr/FbCZRLjZHgceRC+Gx4t8iqGH+n7IDhADSog23CaVkiMzu9jFcWI39cnm4vFeMPtDaNIjJPrYLXN6RDPNofPKIG4WmYu2PBn8NjA3MX3BublhuJHuBJ8DPhH8Y7CQjJd60bHMPtmc50IJz44k6j8aLH1s65fEVh7tfcCriTImDvQ7meNlPXJEU9xXpof9HC+6qLcf4joY4G8GMxHJmmgPTyJMCjuAnw/+MPgAsGkrqoORBEE/Wmg8L1dMx9K4l4GvAfdL3LQ8exEAIW6mW9IKN7YAThv2Aa9N+4oOD0an2MpxvHwkUZ+AyiPPXOwPIdNGU170sU3mNPt95Sqy1EH8zblse4jTd8DfAJNEtuo8kkh4xtwQayr+w3muBj8CzPIe4GERfcUgeh9Y1hc6l/hZjhz/UfAtYGlDcahEX3Ded6ez8AT6VDBjgLjL7RSTwQlg3nreDK7FPk4wCNHwD4FN4GkozzQksz1pKf5LeQLyFrAskPVfg4V+g4L08UiwpC4y9lHkqIvE+u/jUqJbEiHnl1uDtNt5oNwDwJJEKGSu1bwy4KXlLlY/5U3i2D3BlK1Cv4WwOS/HMuh52fwJMC/HvwUWEpzsMdLvOz4BHeeBz/YJONr/X3tvAm9LVZ371tp7n46+B0H00AhKFEVUFI0gig0abwiCUWNMBGMXTeeVm7zfy+9o8uxfbNB4xcToiwleiR0qCjagaOzFDqQ/9O2h57S7e9+/ao21565TtVbVqlr9GPCtmjWbMcf85qw5RlWttc8NyqMfYPxmVCuVZXazbq9ttiTP5ozxlUFTRYt3NtDDmpmd9FAtrNNsVvnAc4H3C1wDRGvfFYw/1u9fCPRbi1TdADDkZuF6wS4um3R2ZMqL9kE98AGBXc9kjRLsygi6LxZMJ8dHCogtjuRs+88jlWXtTA9HHpxx0ZiwgR0rhBexldmRcb1BsDFzfoMV6rg+KGNRvUmgTp5Q9jrB9OXVC/NpwwYAP6HgId4mXNfMzNKJZy4i8EP0dYpAf3DzZMF4VDJXDlYJbQBRVp2CTi6UMGSGB+wtImE90r8Q4IlxPbuZ1qGQFOEiT5G1ZfM3CeeLtXOBEDpZysuM1fRmHs2AzMISmVygTAYTg0AqDzQw/OmCCf1RZgj7f5by2TTwqpQjDPY8weqh/0YhvGBZXO8VKLN6SsZi53guFq8JBP5GMHtJG/H0faqws2DtlYzF7KKcXdnOqffp5jl5pClHOKe/F3MisTbJWfJ5vA5lJ9Vsv0VtLY22N/IhybP9DJW9UjiTSpIse5KSRC+bsUU61P0jgbHlbZDUwZ4nCthA+gahDrFxcgznE/veKlh5Vl/Y9XIB7/rCVIUv6dw2E9YBm1ze+Kwpa/sfBYsYLJ9jaAfXAbdO9J+WY5XxT8JbhIcLWX2yCVwvmH2c7yTUIulFUkUp4coqIbyQWDwvEj4ovF7A8+wu7CbsLTxWYMFC5omCLTQlYz036vitZpo8BJs/HqeSD4ilT/o4IslqfR6qFBNOG5sA6p7TzNMhlrP1uWMzzYFQ/O8Fu2jJQ3YR/k54kmDcMdkPCXcIpMGdwv1CyAUbIRMNRyboeK1wkmD2WVnR4/tUMdTJhkgUBdeh7KGTtwlwQl+cwxnz0K5vyt4pcNEj6H+PsC8nEuM25OPdyrcLlIX7WaFdHyouJKEO+vt3Ab7JZwNlLSFmE/nW5vFKHyUwt1x4RDWU0X6jcG8zTd4fCo8SENPB0cbIPHKbhSNi/uib8lCML9b0CwT6sfZWjzWPPVzU6Az7CtNPURm8I/R5l4C+ypI2urJCKeDC2UFID9YuBhYEwgDYHW2g5JlQdqXwCcvIOL5BeQcK4a5JOyaDI3pZhOEYIfpugYsmFGw9RGAyzU7KSaPPBHvNZvKsvzdbhdSRC4xN0GygPhNo3HBOOedms5JxvzfpSDiPnC5w4VKPMVwkfFPAPvJYIH8ghII+44L8tO3ogZ+3U9hBsJ/FeoJAfwhHFuUlwnphf+GpAhsD+bShj1uFswSEPDaeMzmRsE7+PE5lf1B/L4H6jJWN7i+EUNiQ2ZixhzroPF/4icCYDxbYyHcUEHjhtiathzLshBMT0l8UrhVYt0QGzxdszhjfr4RzhLRgM2NlDOB24Rrh0cK7BfKmBaLe8OL+mc6/IjwkEIWeLDxGYGzYTt2/F2oRjOiFHCelLxHYWW3BFOmHQTJR/ypwX9ZJXq8KB3Wq1CyHvDsFCM8S7GRy2ATCizarLnlMPouNhQSP6A/F8tgEWEjteGDc6GNzQA/nRTcAVY3lBH2+SMCjdJpX9LPA/lEoIy9Q5ecIXFg2PuxlbDZ+6zurD8qqbACr1T5rs3278sONlb6xCcArQt/k7ySw6Zj9SsZCXfS/R4Abzm1MXKi0Nb1Kxuk7dHw/JylBNxEAa421hNAWQedXhf/mRPJw4a8F2zSpR39sOBYdmC2stzcJtQmKeyGXSCmG/kBg14YMBsbg07ABQ/6PBNqxqxaRj6rS2QJkMZZ0H5yTz+L4d4EJyRPqXiEwGWxc6EzrM9ux9ZdC3sWvonicLATqsPPDQ1of53Bzm/APQt58YAtjAOhhgaA7lIt0sk4wnVl9UR/b8Wr/yElJ+brqv11gA8Bu+AgvJM4ZA318Wcjqg/qMwcaiZFuhvo2dY5b8vTK/K9BvaJNd/OTRltA56+JXdswbGzXl9whwTjsEPaHeNTr/mpB18Ss7rkubtwn0y3yZMJ5TBeYH3Cz8XwK8AYR8NgSOCO3Rx7VB+9qkVmUZVqEf4ti5niQcIewlQC73RhuEK4WfCw8IVl/JwgJpEIXe44TDBCaIyeTCu0S4XbB6SrYVs4Hj8cIThF0FFj16fij8RrB6ShaWY1WTcH03gfFfJlwg4CWw/38JjAWsF9jc4K+omE3wfbzwWIGIir7Qh+3XCUW5UNXtJN3HkapBf4zB+GZDq9KHmpcWs4s19nRhP4EL536BaPIioYyg73jB5p8LkPn/vnC5UGR8ZtMuqn+IsLdwp/BbgTmxubV6toYfrTI2DtbwFcK3hW6vDzXNFzruh9APYGGnBSIhwshIlxc9t7GEerLyiuqjXtYkZ+Xl6aT/0J50W7OPIxfSywRr812luZcN2+u0kJjesC15IGsOCilNVcrrg2phv6lmPT9Nc0yHWXlFDMlql5XXSZdxb/XgJ4ujvnPKYPohDDZv4ZGfRUZZu7JIzcorozfL5qy8tE6bSCKHvxEeJWQtHLMPnc8VTGjPLYbpsfyiR9Mb1ieviO1hm3bpvD7IH6RkjTErr4iNWe2y8jrpMu5pC/I46jun3Me51MsAF+3+wl8JpLl14L6SZwFZmwBhKrcshKzURVYL3Bu6OAM9ZaBfEUBPBzFkytnFbxG4iLlvZBPg/vgDAvfKSOjZ99T5/yPYxY+HWC+4OAM9ZyBciD3vbII6YGPloc9rUmPG2/Pw50aBhzyPFCwsVDIWnpATLbg4Az1ngAXpUj8DRAH3CtxiHRSoJ59Nl2cDOwucAxPqf0jgiW+Yb+V+dAZqZcA3gFrp3E4Zr8VuEo4V8PwIG4CBc9sEeA7wDoFXaEQFLs5AzxlgIbr0lgF78PcsdQN2F+wCZwPmvfBXhZ8JzId7fpHg4gyMGwPtHri2Kxs3Hnw8zoAz4Aw4A86AM+AMOAPOgDPgDDgDzoAz4Aw4A86AM+AMOAPOgDPgDDgDzoAz4Aw4A86AM+AMOAPOgDPgDDgDzoAz4Aw4A86AM+AMOAPOgDPgDDgDzoAz4Aw4A86AM+AMOAPOgDPgDDgDzoAz4Aw4A86AM+AMOAPOgDPgDDgDzoAz4Aw4A86AM+AMOAPOgDPgDDgDzoAz4Aw4A86AM+AMOAPOgDPgDDgDzoAz4Aw4A86AM+AMOAPOgDPgDDgDzoAz4Aw4A86AM+AMOAPOgDPgDDgDzoAz4Aw4A86AM+AMOAPOgDPgDDgDzoAz4Aw4A86AM+AMOAPOgDPgDDgDzoAz4Aw4A86AM+AMOAPOgDPgDDgDzoAz4Aw4A86AM+AMOAPOgDPgDDgDzoAz4Aw4A86AM+AMOAPOgDPgDDgDzoAz4Aw4A86AM+AMOAPOgDPgDDgDzoAz4Aw4A86AM+AMOAPOgDPgDDgDzoAz4Aw4A86AM+AMOAPOgDPgDDgDzoAz4Aw4A86AM+AMOAPOgDPgDDgDzoAz4Aw4A86AM+AMOAPOgDPgDDgDzoAz4Aw4A86AM+AMOAPOgDPgDDgDzoAz4Aw4A86AM+AMOAPOgDPgDDgDzoAz4Aw4A86AM+AMOAPOgDPgDDgDzoAz4Aw4A86AM+AMOAPOgDPgDDgDzoAz4Aw4A86AM+AMOAPOgDPgDDgDY87AunXrpk797KnT6xbXTY35UCd2eMzxxA7eB+4MDDkDjSG3z80bJwYWo8ap53526tzTTptnWKd+/Z/22BZtfv501Hhho9F4XBQ1DmjMTO0xs2qlShf1X3VZXEQLyF7qnfpIrMhvn+huryUubVPFitqNGOupZ3WVzJd4zPnFlBTS01TRzq5lvcRKG9GW+dlo7U57RUesefjH/vLIF72OOgR56xrrFpbV9xNnwBkYKAPZu+JATfLOx42B4y9aN3Pxs9bNnfrZz07P73LN3zSmGm9dsePqPTdu3BTd99ADCw/Nbl7cOL8tml9cbMT/KVCAA5x3EeeTOPl81to5u6QsvwYl6E9fKGGLMN3Oinb1Oo0Bve3ah/0udAgASgUTcb/FemauVomp22c3R8/f/eDF5x/2uwvTa1ZNb9206V/e8vjffw02rltcVCDQ8EAgnDBPOwMDYiC9rw3IDO92HBnA4XO3f/L57zhuenrqM9Gamf1uv/uOuTu3PDg1v7gwNdNoPh2Wf2nnYjoFAZ2cZzvd8N5r/UX6iOt0cNyJHj7bSyc+rHUnXpbqFa0ZRTOLjejG2U3RSbsdFJ142NOj+YV5Gi+s3mmH6S0PbTz7LU84+bXotbVhffjRGXAG+s+Av5/rP+dj3yObO4Oc2/map5xy4Tu3bGpsvfjX996w1y9uvirasOWhGUWdS85f9Yq7lzGmblxIsFuK5ngUXJEj579JOY0zPnzNhYvv+8WXPmavgfz7H2O8pn1oQ8+AXa5Db6gbOBIMsJ7irf/Ub7zrv7asWDzliluvn9X7/RVEmnk+rtONb6/v0Hutn5nr1AfkdKzThkP6MBnoEwC9Arhxm54A7KonAIc/PZpbmFPOsm2GZaAnAmumt2zcqFcDf+CvBmzi/OgM9JmBmT73592NKwN6fx81Got8q39htyf+6LbZ+4++5c4N86umZlbg2PKc/7jSUXpcrdCpdMshb7DM+WMrGXoisJkl8eoPX33BGXo6cPZbGo341YB/RwCKXJyB/jDgrwD6w/ME9JJs9LO7HnX+zdvuPfrW++6W85+ebuf6ufOvevc/LsQWvWsf5vGWGwOvBhpTWzbq1UAj0quBC/Rq4Asfsy8I+quBYZ5pt21cGPAAYFxmcoDj4Fv+2sQXT73wPX9y19yDz73z/vvmV0RT01nO3Zx+Vlk3Q+jkdMbpyUOdY6lTVzfzFrQhcpxKviMQnR4HApd+/uP2k0H7PklQ35POgDNQEwMeANRE5CSr4Sd+jP/uzfe/csPmByM5/wYOJoY+unH6yWuD9m6qk/MvMiftnlDQvo4+itjhdezVQPxE4NVJIPCF4MuCi75X+SJxBmpmwC+qmgmdOHXNn8i/6fwPrbp/26bDFxf0E+/kbUDXVHRyyigu4pjbhw+xlq5ttIad+yAQal+ryFisv07HOnXRVyfbO9nTxVJIXg3wq4Hmq4H3/vKLZ/urgU5Me7kzUJ4BDwDKc+YtQgaaO/ztD+03t21+diH1je+wZts0jsb+a1tRhUWcXHuXm/TQqU6nfjq17zSOUSjvwoHXNSy6Tl4NLCy++ix9RyAJBJK/JuivBuqi2fVMMgMeAEzy7Nc49rsuv7yxeWFWv/rufM9ojj48FjWlk1NGTxHH3NnKohb1p16RMfXCkt70W1yrahJTJn9HYHHx9LOuvmDxPZf6q4FezLXrnDwGPACYvDnv2YiX7hZD1759uhsDcPz9dP6d+irqwjoFGp366YarTm2K2t5Jz7Lynihd1kPyREC/GtCvTc/gicB74i8LJn9W2H81sIwrP3EGCjHgAUAhmrxSYQbqdARNp1/USRbpupNDZpxF+yvMSZ8qFrG7CEdmbhGuuqlrbbo8KhBoTG3VdwT0B6b+lEAg+fmgvxrokk9vNsEMeAAwwZM/jEPHibVQ0ECcWhHHVsSh1elEO/VXpC8oKDI2kVaQrf5W65VV0ssTgfjVgNLNJwLhqwH/Z4j7O9Pe2ygy4AHAKM7aUNp8ceyDcHpFfFHLyYcOv0jDYOw4l6IOppMzRm0Rh1xnf8FQKieL2lW5o5IKll4LWcPilhasmbwaiJ8IJK8G3vfLpb8jsE7/+qD17EdnwBlYzoBfHMv58LOuGTheLW3LJghoj667afZiPXXSg+Pnv05Sp/Nf4iG/1yL90bqz5cUCl6K6zOIinLXqlgzcrF3Nx/jVAH9QSH+V+k/jLwsGf1nQfzVQM9uubiwY8ABgLKZx/AeBIzQUHW1RJ1bEGRdxxIldnXst0h+6ivdZlJH+1xvAGJJXA3xZ0F4NKBDwf32w/3PvPQ4/Ax4ADP8cTaSF5uztWJQE3K/916kNjriIMy7jxDrW7Vjm7fAuAABAAElEQVQhsbpgtUL2o7GovqRu8dpF+EtGVM6K4hYsaU+lll4NRNHp8ZcFf/nF1p8Y9lcDKbb8dCIZ8ABgIqe9/kFfLJW2aduxUy/Uy0Ontunyok7f2hV1XEXHwkj4r5MUqdNJx7iXd2axFAPxEwF+NbC4uBD/QaH3BK8GPBAoxaVXHjMGPAAYswkd1HCOb3ZsmzfHTqhqqzn9Mk4Vx1/E+ZvtxWwsYIEUFumX/ui7iNStjz4LjKRlWtH+kwZFR9VSX2tCvSsQ0L8+yJcFo8UzPnTV1+M/KOR/YrhWml3ZiDHgAcCITdikm4uDsv/KcIGzKuqwyriqxJYOlkgh9YpIsVr1BxPYVtTGeByFv/hXdERF2KmlTkOmJ/8McbR4+oeuJhDwXw3UwqwrGTkGPAAYuSmbLIMTB7v0WXb0ZR1/GXdVxGHG/Y+A8y/Na8EGPH8ntCgqxWsW1ZhbL341kPwzxIuvTp4IfO5jS08E/OeDucx5wdgw4AHA2Ezl4AdSdvNecuv5qW5GZU6/zB1/GdvN2k62Fe0fPUX7L6Ozk31heZFgxur3zgbroXfHDNuTVwP61YBeEcSvBt596ef9Xx/s3RS45iFiwAOAIZqMcTDFnGORY53jZWM3FNWL0y3qeE1nUUeZ4WhMxXbHojb0QifGFB3TdoYXyChjcwF1vazCE4H41YASr+bVQBII+J8Y7iXprnuwDHgAMFj+vfcuGTBnb8cyarp1/EUcZVl7Rs35l3PoGh1utYAU5aGAqtwqBW3H4vhPDOvLgqfbq4GlvyPgrwZyCfaCkWPAA4CRm7IJM1iewZxqeCzLAg7GUKYtTr+I40dnQQcTd1/GlrJ6y4yvTN0ydiRs4/8LRgBlDOlPXRmuXw3Erwai+NXAe/3VQH+Y9176xoAHAH2jehI6Wmg664JjxQtKQse+XTp220m9sp/mZJvdlGpe1vGXcY5l7OmVXsgoGtjEdQt/6385zUX6KMPHcu3Fz8rwmNIaBwJbFQjITn81kCLHT0ebAQ8ARnv+hsb6i6OL5chlTryba9sP3snnpnFBXTqWvIGbCbEZeZXa5OOw+K+I2LiK1KWO2Va4fgluilm81HPRMcZ2l7BjqYck1en+v6zdaf2FzmvoRCoYSvPVQJTxasD/9cFCc+GVhooBDwCGajrcmDIMsK+nUaZ9WLeXjp9+yvqgMoFRad2lrQmZap9O25I+b9+6N6Vlgp0CFhAILL0a8L8jUIAyrzKsDHgAMKwz43YtYwBHksayCl2cmNMv6iDK3vGbSWWcYNk+yujGnqJjbdle4u6/ZYtcpI2j3XcAWvWtsx4cywRSJbvXKBtT/IlhJf7Uvixof0fA//XBkmx69YEw4AHAQGj3TkMGcASdENavki7r9OnLnFnZfm1MhdqpchlnVUp304BeOn8b47wCht2nVkTXbbovemDzQ9H01FTmuLB/HETjaAjTyZcF7e8IfM7/9cFxmNwJGIMHABMwyf0aojmlssfe2he6fCwrLn1x/DIn7qfEY/lyoyC4Sv4rPvJywQh6zaYFBQA7Ts1EV269L7rp7ttUwhPz5WJ1l+fWf1YmoKqhdwba/DsCjdM/mPwdAf/XB2sg1lX0jgEPAHrHrWseEAPm8Mq7vaYzlhPrxnng2Mo6tzL9dKW/rEVdjH3ZmOUGeQqw38rV0Zdv+kV01313RzPTMy0+l9Xt4foow2udZmh88RMBezXwQf2jQ+++1P/EcJ0cu676GPAAoD4uXdMAGFju7Ltx+dWcPkPuyjGXdLTdOE7YKCM4zXItsgMedDQajWhq5VT0yd9cpCDgHgUB060goIxN3dQdoPNvmSsOlr0a2D4Q8F8NtMjyxMAY8ABgYNR7x0UYyHLwYV4RHVl1YmdX0gmn9eDoSjvMkn120wdWlXXl3TjN3LHrKUBcpuP06kb0jku/El110/poZmbpSUCay1E/z+UieQfS/NWAvxoY9XkeN/t5b+XiDFRhgDW0GK07fmbtoYdcp1u9Axfn5heUN1TBZTcOLouUNht9VvVWXjf9d9NXWcePgT2zjQEo4JnR9wDu27wlOnhxp+h/POH4aI9ddotm52bjpwQtgmpKdDOWOrouOlfERpqjxdU77Ti15aGNZ5951Cmvpf91i4tT9guCOuxxHc5AEQaGapMuYrDXGV4G8PrDIjiCEFXsiv2YFBTd5MO+zIYwr1Pa+utUL13eD+dfyjZCQ2E2Woh2XL0yunf1bPS+n54XffRb50a333VnNDU1HQcBdTntuvSkee10XmZdqK4Y0Z8Y1s8HdTzjg1d9bfFdl/6X/+uDnUj28p4wwCXq4gxUYYA1FD8BeISeAEwN4AlALzb+Mpt6Fnnd2NRtn/1w/IyxrH3LOIgb60P/z/DL+a3z0S33PhQ9ZcVe0TGPeXx0wP77RytXrVL5YjQ/Px8Hb1m85uUt6yuvUo/yy/ISmiEmIGVh1U47TG95cNPH/9fRL/kzytetWzclDFNMHZrt6TFhwAOAMZnIAQ6jFQD08hVAPzb4Khs5/HdrY5V+R8L5h4szHuxi/A05PRiI3xPNbFmINt2xMdqwcUt00Jqdo7W77x3ttcce0Z677R7tutPO0ZS+UNjQlwgVXMYBQqjO0sW4t+0OI5Jla+27PVaZu6TPpi36pwf138LqXXaYvv/ue97//574+r9et6ggoOFBQLdz4+06MzDTuYrXcAaKMbCwoI2dfay5yRdrNbha1TfvxPZizmf7cVbpvxvHz8R002fZNp350CrB/07rbl+HhR2moum1O0f7ze4YzT4wF123bUO0/rYNUXQLhQlvi1pbILlhXnLkiW1lLUx0QoYxsqQxKeMvGFIWhgmWtmNTS9eHZTzxswlJY/VMNLtt9qmk1+mbARxdnIFeMeABQK+YnVS98ZY1nPtWnVYt27xLznUVO8xhleyyq6cT3djZkZfYzZn1OlEncTCgH80trmxEs3uviObmFqMpBQINHWPhgH+MTwMFapgEm6avzLGpu0yToG7VIDezdw2tsUrfi5he9O9mBVx7sncMeADQO24nT/MQbVuZG2zFGeno3Dror2JTt44/drCJ5+xg3fLibmztip/Ynzd7S26Co8WZRjS/50r+olA0rUAgiu/8sW/J+S854KW85SNod0Z/3bRLdC6NszsdbbldoaDG3/y3mzwvq5EBDwBqJNNV9Z+BtptpDeYsbfbdKatq39g6/pjOHHbMr04rENhjRRTpScD0Q3pZoIAAvx07/7iOVSwzN/TZTbukj3g9NAOVMr1a3ZwRW7G+FKEouoL+JUWecgY6M+ABQGeOvMYAGei4YdZsW1WHb+ZUtbtrxy8Duh1DNzZ321fzeb7RlX/EKAKB3fTXBBQANB5cCgTyG+WVdDPCJV2J8186L5sq1DuxyRA9SSs7Rq8/Wgx4ADBa8zXU1toGZ8ehNrZpXPcObPvR1THuUXH8jL577rpgSk0WpuQdFQjErwaCJwLbz0RWThd9Bmr64vzpD+ff/QOKwGJPOgOdGfAAoDNHXmNcGJAPqOJgs2io5laWNFaxq3tHXPg+fMlQpar0112PQSsIVyAwv2sQCPAdAZxmzmRU4dYGnqM6u98MW3LbWwccY8dfh7WhUk87A/kMeACQz42XjCoD2m17uY0W2swLcFfVxiqOuKsxVOK1qx5jFjNbkhkGAhv1zTkLBALuE44r3FLbmNu9l89SH+Rl2h/YuCzZ4DsA/g5gGSd+0jMGPADoGbWuuKcM2Mbc004S5aU28AL2jJzj15iqBBu5t+YduCrEO5UIBHbRHwnS1wOmN+mjGQhU5ZknCov8m34VJLM1mUGAsEw9+Xllyyr6iTNQnQEPAKpz6BqaDPDzpYb24bISOhf2vsxNs6zSCvV70X9lZwQv3f/ovRKnVfrtdjZLzwENdOM8v5MWoAKAqTgQUF6XzrTamJPFlzuGdja1K0vU+qczUBsDHgDURqUrYrNn46yyeeZumj2it5f91eH0Gfag+KzSb7eOPx5vxbnmDwvN75gEAtP6M8P2RKCo2njcFR1x1+uKfv0NQNGp8noVGfAAoCKB3nx0GOh6Uy4xxLqcvrx+tbv2Ejanq1Zz/GjrjunuWi1Zv53dvBrYgUBAPlX/+FD8Z4U7OXZ4b/e+f6m73FSlcdB3xf5zDfMCZyDFgAcAKUL8dDwYqLQJl6Sgmqte3tl2Tmx5ccezKuOu2ne3jp9BVbE7bt/u9YjuqBfWKBBQnSmeCOR0Vsc85qjuOG9hBVno4gz0hQEPAPpCs3dSJwN1bLJV7KnDUYT9V3e8uT4t7CY3XUf/VSyoOp+F7deddRwI8B2BbbwaECXNJwItHZ2eEOSyWIWBQCn9V7Ah0ORJZ6AjAx4AdKTIKxRlwDZyOxZtN+z16nb4jLflcCoOvgrX9djQvQXdt2yS1u1rEr0aWFjdfCKgQCD+VwYrOt3KY7F1UNEOU+NHZ6AIAx4AFGHJ60wMA71w9kZePQ63+p1mPXZUc3nVWtcUQOmJwPwq3g80nwh0aVSXzWxZLB1j54+22jQu6faUM5DBgAcAGaR41mQw0EtnbwzW42wTbVXdQj22VLOiWusmD+3e9xvxHY7L5r71REBfFky9GuigplZXndikKMC/BNiJdi+viQEPAGoi0tUMLwPLNvtemykPV2d/w+Iwq96VDs842syPfO8CTwRkbBwItDG6TVFXK6ye4Kyrrr3RBDPgAcAET/64DL1Oh9sNJ73YvOtwMPXYVd2S6hrkk2u462duC62VIBBozGb/aqCOMdlai8cWP/5Xjo516rY+/OgMZDHgAUAWK55XgYFq21ehDbqCdZWbani9srEac82R1WZfdWuqa+iz408vDpzxyuSJQGMuCQTqGFPYzTLnTwGBgLp0cQb6wYAHAP1geUL6MMdox3EYdl13nnlc1OVQ6rOzukXVNSRs1TWmyuuRQGDFFH9GILJAIG8+y+TXNb4yfXpdZyBkwAOAkA1PTzQD/diQ63KO8UR1+zO4zFmubll1DYlhdc5DZeff5CoeWzMQ4Bl9Yz771UAmtRmZ8Ri5208LeVn56Xp+7gzUwIAHADWQ6CpGh4E6nUuRUdflFFt9SWFdTi3RWd3C6hqaltT0nh9tdXGUOTYCgZnmq4GygUDt85dw55/OQDcMeADQDWveZmgZ6LeDzyIi02lkVSya1xOnUd3K6hqWCKhz3nrq/JdMju/UlwKBeJLC0sx0YlvOLX589x9/ZLb1TGegbgY8AKibUdfXMwbqdBJ1GVmnE0zbVP9467G2Hi3JaOscY98cf3qi4icCfCgm0B8V4piW1jjx752kSJ1OOrzcGSjAgAcABUjyKsUYiDc53kvX+Ci3WM/9q5Wxt9fWee94q8fqerQkdNU91oE5/3D2iQGmtw8E6h5r2KWnnYEqDHgAUIU9bzu2DNTp7NqR1DvnUN8I6tMkB1lzcDgUjj89wa1AQMzNC2Xu6MvUTffr585ASQY8AChJmFcfPwbqdHCd2KnbAS7vr96R1KqNJ0PLja10Vqe2Ou2yQbXmOXwiYIV+dAaGhAEPAIZkItyM3jHQiw2+qLUtR1C0Qel69Y6uXm0azIQ5fqZvuzlvPRFofkeg9Bx7A2egNwx4ANAbXl1rnxio3WGl7C7zRDa2Zekj1lSmfarrDqf1jty01WVv6ARr06lnCFm6zPYOhC0r7qbNMgUZJ+GYM4qTXw34E4FMajxzMAx4ADAY3seyV9tU7Tiqg8T+lXI1Ny1si6LZe3SW5XaUXfP77Hy+jFE75tcceEntnDDmDuNeuXe0X2Mmms0JEEJOOmgKq5ZKd3T+oTYtp2VfFgzLPO0M9JEBDwD6SLZ3NfwM4CD2kDP57Zabo3cddEp05nGnR1vnFAj0ynMMPyVDbWFD/3TuX13w3uifN/w4Wrti9+ihxflce3s1haWcf2idBQLk8fNBhDz/twASLvyz5wx4ANBzir2DkWEg3oP19bKGEouNaHZhLtq8bWu0TQEAjsZl+BhoyGPOL+rP8uY9pVHJ0Dn+LBqnfH1l0eJ5vWXAA4De8uvah5CBjndsvfIYQ8jFOJvUy2nsuIa6JZa/MOxPALplz9uVZMADgJKEefXhZaBnm/LwDtkty2BgJB2/xlHnTxszaPEsZ2A7BjwA2I4Sz+iaAe28pTYxdur0k0/Lq/nnY12PyRuOFAO9cv69Di5LXTcjNSNu7DAz4AHAMM/OiNnGJha/Pi/zTfCsHTsrb4S4WIjfSQ/S4EY01cV3FgZvdyS7u3/+3atl00vn745/kNeJ9+0BgK8BZ6AGBtjIcV5bZrdGl1z30/hJCA83euWUskzmC3F8cXHPNbtGx6x9wvZ/kCarkfKwc25hPvr++p9Fm+e2RtMaR0e7qZB+epOjP1bWpi5F8wsL0Y4r10THHnR0V8FLXtdV8nvp+LHLnX+V2fG2dTDgAUAdLLqOMWSgowtcPmZVn5qa0i8GZqN3XPH56AE54tVypAudXelyPakzswInGaapxnmYv7oxHf18233RW/Z5cvTUtUcVdzB6WsDd/yevvjC6eNNt0QFTq6I5WV6XJI4uPwJYof5/M7c5+qOdD46etvaJ+sUFAYiNti4riutxx1+cK6852gx4ADDa8+fWd81AOwfTrqxTh4vRfQuz0W3CbnLI8wUdWZUezaKdG3LaC1ujuTa/hbe6dqRfc81bFbTcrfZrlLO1oN2mJ30s48DXECip322Lc2k1fT935993yr3DATLgAcAAyfeue8FAHa60F3Yt1zkaVi63udNZGaffSVe/y93x95tx728YGPAAYBhmYaxsqNO11amrvyTbXTW99n8UYe/tx128Zr4ed/z53FAyyvy0H5mXjjoDHgCM+gwOlf3m6uw4VMb11Rj7g7T9ZCK+i9W7/F7fzULkqDs156ivl4N3NqQMeAAwpBPjZo02A3XcWRdhYJkj63Gno+704XMZX0UI7rLOOHDV5dC92Qgx4AHACE2Wm9ofBqreta/Ul9p2FvgVQNEvARYamQzbzrEEv/en30hfPJxqfa2vkNZWpelY13S0SnqWfggY9tibCGOVeoviPnujnwG6429NsyecgRYDHgC0qPDEJDKQdvbLz5efdeZHfwhJjuzJO+wfzeqb+DjUMn8TKVt/7PWTog7+Edd/yMpdo71X75atqm1uIzpozd7RSxRArJ5a0fnni1DTwZ623QWFBCyPm98aPXzNXnWpbGl3x9+iwhPOwHYMeACwHSWeMS4MlHXfjHu5T1t+1o4X/rVA/pjNTqt2iD584lvbVe1D2WL8u/6iHeEkV0zPRG8//o1Fm/SoXvK0IXzm0G1H7vi7Zc7bTRIDHgBM0mz3YazdON0ss+rSk6W713l1OLBe25ilf1TtXhqLRlD9kcuSujap0eeqzeC8aGIY8ABgYqa69wPlb8fxl9xH2Xn3niXvoX4GtOLk+Pvk+7f/Hkb9A3KNzkBfGPAAoC80eyeTxEC/7kLbccoribIyunaXHWl39f2uvzvevNXwMuABwPDOjVs2UAa6e47B9wA2PHSPLKd9eSdcdcg4Kd7n77nj7qVU4fyxe15/R4B/VKiz1Ds+7J6emo72kt3dBC+d7e2+hjv+7rnzlsPNgAcAwz0/bl2fGWi5fRIlninjQGfkeB/c8lD0om/9Q3TX4qx+Cqh/C6CEjm6Hag5qJ/V31bZ7or/c99joH57154W/CIjDnZ2fjf76krOi8zbdEq2dXq2/y9/5HwNqcdWt4c12/Fxy/dym6GW7HBp95MQzoxmd25gqqq7UfBhsqDQAb+wMdGDAA4AOBHnxmDIg75W1wcd+XyXJHXx3Y59T+01y/Kt1JF23ZNlNH0lf/PuD3fWZ/MuFC/oJ40K0LUNHd1o7j3467muh808PO6uqpUa3/NXSuStxBvrIgAcAfSR73LviC4CDkmF4f92LsQ/aGfXK6feCq6o6B8019scPjCaJ9KqT5u0rMeABQCX6vHHIwII2roZ2MDYx/QmcjHvIpDZvmId1jyvy9jscc53pfMbq7KWzLuZmIPMzgE6HhvPm2Ae5/jqvDK8xbgx4ADBuMzoU42m/rQ5gnx8KVkIj2jMU1hzvdPLkRiuiz7e+w8J/POzxnmIf3RAz4AHAEE+Om9Z/BuoOTobF0eQxyXgHcdcZvrKpm/O8sZI/LPPhjr/dLHlZvxjwAKBfTHs/E8QALi3BIJxrOZeeDgH4ESD/1e+WQ6cf8hKme7VI3PH3ilnXO8oMeAAwyrPntg8dA9zZXbd1g/z/lui2hi6vPt7q3aV/xCfaekN0/+xR+i29qCngw+03/5h5/bYH1P7W6JbpndS2888Ai5EvxZ3s0M8Xo7l7oju27VfM6GIdq9tOHRdUVFO1Pi6Fmix2NePOgAcA4z7DPr5CDCx3FjiOcg4w+ceA5qNd1+wcbf6jzw3ksboNdEGeht/1FxXuzFfOrIh+8pIPx/f+RdrBUN137szBtrnZSo47cfnu+IvModdxBjwA8DUwxgwkbmq5c28/3CXX0Z17S5zYtvadDGkpznd0hZkzDMco/I5/OObBrchnwAOAfG68pCQD+kdo1aI7x5nVVRnHndU+yVty6fl1vGS0GRieOXanP9oradKs9wBg0ma8D+Otx3H3wVDvwhmoiQF3/DUR6Wr6yoAHAH2l2zubBAam9Lfs84Qv55VxFp3qp8vtfKGLL/GFdsd6GEQ/bq7FCc+N4KUbu/O47kd+mbnshz3ehzNQhgEPAMqw5XWdgRwG+CId/xjQvZvujw487w3yZFvl1bi8+uFBm0bR37ZbozP2Oyn6wIlvif9lvxxzl2XzBcats9uiF371b6Mfb7wmiqZ2VHm5L0EuU1j2hIBp7v7oubs+IfrMSW+PZvSvAg77UyR3/GUn2esPIwMeAAzjrIy0TX10eEPIE3eyB63YNbpxYTbaSz9v68U/BpQ1bFjfVf2tX5yLdpxZVTjswNHGPwWU4XvP7BBFK/aIHja1OtpaWEOWNeXy1igAuKWxItp9Zk25hgOo7Y5/AKR7lz1jwAOAnlE7qYpxgaMrsfU1DKEGFaVI7LY/+zsAYfswXcqISpWHOHCUaUNsXSXWvfFkM+ABwGTP/0SOvt1mTtno3+UNxoWXW0zhQ/52M1JOa521R38d1MmG6xpHBjwAGMdZHfMxDae7GCzpMScWvZTwXK1XAH0yP3T7feqyXDfi0NdXOcq89ugy4AHA6M7d0Fke+5+hs6oLg0bgBjr8u/o2wsVGeddlrwBMR93HoXf4zQGXiJnqpsj1OQMDY8ADgIFRP54d4zvLu6Hx46IsB1Y/jD0sz95JtM57TBf9lO3L7DaHX6Z9mbq1Dl0dD6zvWgfiypyB7hjwAKA73rzVODNQwStwZ75+8036Fd3m6A59s73Uz+lat6FpA7LCKsuzYxTd21ipf8znl9Fd244s/I8B2TTS9U+26B8x2nRldNv0bsqeF5Z0W73so9nLkTbl5D7+MaDZO6JrV+2phqarnI4ytVs0l2nkdZ2BMWTAA4AxnFQfUkUGyvswOdxGNL/APwa0S7Tlj8+vaEDQ3P6yT5C1LJkqxw7+mE6Zv+tv/xjQjS/9F6luOv2ivn+ZMemTEkpkN3Zsm9umEKD+IMCdfnpu/NwZiCIPAHwVOANpBir4H5zXVjmxUZRRtbsd1+7427HjZZPOgAcAk74CfPzOwBgxEMduFQK4MaLCh+IMdGQg/4+Wd2zqFZyBMWYg/lv67klGZoY1VfHd/hhM2UIPXoGMzDy6oX1lwJ8A9JVu72xQDGT9bC7LlsR/jIEXyRqc5w01A8l3H3ztDfUkjZlxHgCM2YQOcjilNzD2OvuemB0ZAGnE9kKdF3XgScN6PrmjpN/4v6YtoWlhmh7zzimzoZI2CYbXKrd6dqSu1bN2YT+krdzyrU3WuekN21ja9HO0tlY/1JlVP2xr6VAHeeE5adMT5ue1DfPDdt387QPTNSzH5LoZFmvcjkliwAOASZrtXo9VO3PsqMt888p2cztiY5jOOu/hOHBG8T/go5/UPTi7Kbrt/juj2fnZJe/Vw75HSjVzZJ67k+Fl6qZ1pddCEDnwAwiM2DjHv7w4rX+/MF05rWy4zt3xD9d8TKI1HgBM4qz7mNsycP/ifLT7yj2iT274RXTON36VuJXQt5gTSjtAc3RWN6xnZfQcps0Sy7NjWM/yOCKxXp2E/VudpMb2fVjbVvtmxbSN1t50h3rTaaubPrbTmaXD+kKPyqlSRrbo+xq7Te8QbYy/t1GmZf/rutPvP+feYz4DHgDkc+MlE8wAPok/hbMpy6mYh7JjyFOYZ+n0kfqWl9U2LFM6dhqpvLhZmJelM11ufYX5lrZjuzpZfVj98Gi67Ghldm7HIL/MQyNrNkpHd/yjNFuTY6sHAJMz1z7SIWdgopyEgoB0HDDk09OFeRM1o13w400GzYAHAIOeAe9/YhiYdHcw7nf5tpAnfZ6NBz8OPwMeAAz/HLmFI8SAb/7BZE3EXX4yXp/3YN49OTIMeAAwMlPlhg6aAd/kO8zABDl8Y8LXhDHhx1FkwAOAUZw1t7kWBti87Qvo4/8+uhbKliuZQIcPAe70ly8DPxtdBjwAGN25G0rLG3Kp/XamVTbkfts6lJNW0KhJeYefRUeVNZalz/OcgWFgwAOAYZiFMbGBTXJRf45lEr7fPSZT1nYYk+zwjRh3/MaEH8eRAQ8AxnFWfUzOQEkG3NkvEeZOf4kLT403Ax4AjPf8+uicge0YcGefpsRdfpoRP58MBjwAmIx59lFOKAPu7PMm3p1+HjOePzkMeAAwOXPtIx1nBib0G/llp9TdflnGvP44M+ABwDjPro9t7BjwO/pyU+oOvxxfXnuyGPAAYLLm20c7Cgz43XylWXKnX4k+bzxBDHgAMEGT3euhNhZ86y3Dsd/Nl2Grfd2xWnnz/tcp2s+2l9bFwFRdilzPhDNwscY/r78CZH9ab8Lp4K8h4eDbYdIpqjJ+HH74XxVdw9Z2ij+l4eIM9IEBDwD6QPKYd5Hcrlx88dzUtoUbGo3xjwDaOfVW2ZhPer+HFzp70mMrWkCNzfM3xON727rxv5jGdiJHY2AeAIzGPA23leuOj18lNTbOnzM1r7ve/v814Or8dLhbbzn2MfY91UmsV0Po9OvVPJzaFhU9T22Zj6Y2zn46tvCIyzwAGM6pGhurfIGNzVQOdCCso9g17vOeU743v++apy8szM8rZ7ofVuGcXUafgbG+s+8wPQqa56anpmem79hy7oYzP3datG7dlOAvAzrw5sXVGPAnANX489YJA4vxhqX03OrVJ03dtnl9Y6ExvdCI5sM7516lfRJGk4HwDn/Snf/M4tTMzG2bf7jhrZ97aTyb69Z5WDuay3qkrPYnACM1XUNuLP+6Lo//9Upgn1V7XLKw2+qnzq5cnNMi81+bDPnU9cO8SXbyufwuLs6t2NaYady39dy7/u4Lp+nqGcQ/qJlrnheMNwP+BGC857e/o7N3/0fsvXjn337+aY37t7505YbZmemN+mJAFP8zgf21x3sbGAPpu3t3/sFUJLdd8zObFqKVd87OLW7a9pTY+X/21Ok4gA6qetIZ6CUD/gSgl+xOtu4kHNDnXu885XVaaB+NdpiJ5lY1ZhdXNngiYOHCZLM0JqN3B99hIpOddrGxZWFuZraxItq4bdPidPTKu8/8wucjHP9p58ZRcgctXuwM1MqAPwGolU5XFjDAw8z4PeaGQ6Y+ftfffq6x8ODCw2fu23bOiju3NVY+sBjNPKg/HLBtYV7PBhbiulPxA1BCA8cQc6AvrOmXHnL5AXzOgjXLOuZLsVrZja0L86xz1vvKO7Zum3lw7kMLjZldN/zdF3a8+6CZL8XXizv/mAb/6D8DSVza/369x0lkgG82I81vN+/zrpMfLy9yin7+9IJoYfFQOZFdG6tWNBozqhZ+BYpVmj5HT5jHORLWDdNJ6fafVseOpoOj6Q/LrDyvjPK0WHuOCG0tL85oflieHckO01bX8jgiebaky5Pay3WaLiuzo/JjtfYTC6tnR6vX7tiublhGGrFxkM7KIz9PTJ8d0/UsP31M17PzrHrkIWk77Vzli7ML0eK2uXnFvvcqAr5icWrxK/ou7Bc3nHnelXHbU3W3/9lzk4A3zvAPZ8AZcAYmkQEefQIXZ2BcGWB94/RdnAFnwBlwBpwBZ8AZcAacAWfAGXAGnAFnwBlwBpwBZ8AZcAacAWfAGXAGnAFnwBlwBpwBZ8AZcAacAWfAGXAGnAFnwBlwBpwBZ8AZcAacAWfAGXAGnAFnwBlwBpwBZ8AZcAacAWfAGXAGnAFnwBlwBpwBZ8AZcAacAWfAGXAGnAFnwBlwBpwBZ8AZcAacAWfAGXAGnAFnwBlwBpwBZ8AZcAacAWfAGXAGnAFnwBlwBpwBZ8AZcAacAWfAGXAGnAFnwBlwBpwBZ8AZcAacAWfAGXAGnAFnwBlwBpwBZ8AZcAacAWfAGXAGnAFnwBlwBpwBZ8AZcAacAWfAGXAGnAFnwBlwBpwBZ8AZcAacAWfAGXAGnAFnwBlwBpwBZ8AZcAacAWfAGXAGnAFnwBlwBpwBZ8AZcAZqZKBRo65hUZUeU/rc7Fy0RHDMyguKPekMOAPOgDPgDIwHAzMjPowp2b+QGsMane8m7CvsKews7CJYIMBxm/CgcJ9wVxMP6Ei+CboJCDwoMEb86Aw4A86AMzA2DIxaAIDzDh3yYTp/snC4sJMwLcwKc4LVs6OythMLCnD2cAFoT1DwC+HHwt0CkhVsJCX+OekM2Lp8gYg4RNgi2NqCG4LUHYT/Fn4m+FoSCS7OgDMwWAZGIQCwzRWm9hNOEn5HYBPdKuDgSYd37zptbcDhRkx+lqADxw8QniAcJzxbWCkQEHxD+KGA+Aae8OCfyxnYX6ePEjYKBKMWfBIA8CTqCmGShWsRpJ/adeLErmHjs1P9rHKu2SxBZxW9WTo9zxkYCQaGOQAwJ8ud/anCUQIOn7t7gNiGkpwtfdoFbcewXvqCD8tMg+WxUXE3hw0nC68QbhXOEa4XqGd9KOky4QywHli3wNYQlLBGLI/zSRK7jhnz7sLRAgE8r+h4KoLAVSh2TRHU3ylcJ/xcWC8goc4kJ/vTrk/6OT5VhT4I7n8jXCtYXSVdnIHJYGAYAwC7uA/SFOBw2TRwwpsFhPK04KjJX9UsoO4tApsHj/B5v89d2bywWsCh7yrsITyieVyhI4EFmw6bATCxNHq5k/ufAhvHRwUXZ8AZ2J4BrhmcLNcXATxHrmOuQYRyAvpOspcq8F2eYwSu3U3C14TvCIj1k5xlf/K9oOOaRdiEsGdwLbM3eAAgElwmj4FhCgDM8eOUXydwxBnzWJ7HqWnhAiaCRy4XvitcxUkgbA4AsQvfzslDRygEBk8RjhX2EdiwaEcb6nIncYXwNoHNi3zTq6SLMzDxDNh1zPdyzmiyQWBN8IxQjti1R+BNXnhdck1x3RMskG9tuB4557sWLxF4JfefAtLpWjT9drQ24XmsyD+cgUlhYFgCAC5CNgQu6uOEhwQ2DbvwlYzFnC13+r8SzhX4Nj+Srkse9a0N50j6PMlNPnlKcLHw7eQ0fu3w+0rvLfxG+ITAJmR9tdOlai7OwEQxYNfxqzRqHvVzt861YtcL1zh7DvUI1n8iXCfYNaxkS/ZX6giBO38LximkLUD3kcKThH8RLhPohz6KiF+7RVgarjrM+18IfNF2m8A5882NGf7gfwsuJRgYdADABHIh4tCZ2H0FLuysO36rd7HKvyggtrGQLnrhUzdP6CPcGPglwKVBZexF6ugr0eSfzsB4MGDX8ks1nCcK5vwZHdcUew3B80eFGwTqWxslt5PblQO+2Sx5jo4vFGzjt7ablfda4RzhB0LRIID2LqPHADeGPB3iyByyF5O2V0tKuhRlYJABgF3A3F3j/FcLTGz6wmSCKbtOYPOwOmwqvXbEYTCg7pYFB5y7OAPOwJIjP0xkcOdvr8fghmuUd/C/FewOza799PWlKi0Jr23qEwh8T/hr4WECG/49wuUCTxJuEpCwXZLjn+PGQNpHjNv4+jaeQQUAtgHsqJH+mcAjHHPs4eC5mCn7unC+YHf87TYOVRsrscVuRwZn47fjoAdsttkxtCtMD8pOs8uOZpMdB2VXlX5tLHa0sdixiu6ybbGBfvcQeKdvd+lKxgE9zvrHnEisbnJW7NPGxBOE9wqcc9eHpMef5PqnM+AMdGRgUAGAGXaqEvsK4eNCK8P5EyB8RbhAKPpoT1VHUtjIQPoOhrsnvq3MaxKCIR55shFuFPiuRChwxOZoG2ZYVkc6b7Pl7ybwlAb7eH2DbTiBewXbqJWMpZc25nG4q3rGPniEG945p/nLG5uqDlSyxkQev45hTHxxlTXDeFgb9wmh9PO6Ya7Ta49zgoL9BX7Kh+3pOsoqLNwohFJFV6jH0ll8W1nesRdruhs7zL5e2FNVd1mbGL+JrRnjxPLDY1hm9cNy0kXXCu2RovWT2iMYjA4iALANiceFTxDYtMgLhQ0Nx/czAeePpB1jkjvan+FCJdh5qsD70/0E5oYxG1iMwBY6nAHOqXOXwHcW/lswJxDqV3ZXYvNF40cIzxCYu90EBJu4w+OIHYjZFR6Z5xsE3tP+UrCxKBmnOXYjjBFBH44GDvli2IEC/efZRxkgYCEg4LseFwkbhF2EMwQCBpxa2Ie9jvq3Zj7665Zw3vaWcjh/rLCXQH/hmkhzzngYF3bfKLAefiLQjnyrr2RtYjp/JY0nCthpvNEnwclzhT2FTwlIr2xJtBf/tPkzewi0jxF4lUHQslKw8SnZWgvMEev+DoFxf094QAjnTqelJGyLHazjo4QDBIJrs9WO1DchzXXPqxDWMnuBzYGSrbaky0po1+FqzDW2VrA9QMlY0nbB6UPC7QKvan4qcFOAhDqTnKVP2p0gsF7CMVCDwBfeTdBDUMh1coplZhypd4mALVl92/zTlP2XNXCosK/AXNjY7IgOhCP2sP9eK/xIuF5AsvpJSobk0wbRT3OMlJerU0jeLEC+CQRzzsR/TLhesDZKVhL09GPMjMEWSpbBtti4gFi0jxcYL3fNSMhHktP50/rECbJpXSWcK7DgrT8lC4lxhM7HCScLXGDMFZthNzyafWoe37ly0Vwk8GoHnd3YiE7kRcKzBezaIiBlOEQPNnChc/ymQCC2hxBuQJQRmMLtPwv0R1s7EjQwlzi8sH/GSlDxJeHCZhm60mIcUPcVwhHCVsFsoJ8yYn3gPHBO5wiXCWavkrWJ6WTzfLPAOqT/0Ga4gj+c1FcFnIKJ8WU2W36Vo9mEIzkzpQhbsPHTws8F1s9JAnbAOUL70P44M/URrh3anid8W7C+U9UzT23eCS651tgX0VvGDlWP29AOQRdc4vRYdzYXVq6sthLaf7xqwg3XB9cXOopwo2rLbJrROXb9VmAt3iPY2JVsCfXeKBwo4NzDOaB+lmBTu7HR7hPCFULYp6Xp6+UCR/Y5rlkk3Z/1EdpEPeuf+lxvNwqsrVsF60PJ4ZL0IHptHf1BFAvpLwU2i21CaAflXJg3CB8SjHAlKwmTcLSwq8Dkmi1K5qYpKyvTanC/wKZii8h02EJ4mDLOEHAwXFC0yRJbVOkys50jyBIueAKBTcK/CdcK1r+SuWK6T1CN3xO4ALEjr58sG02HtbGj1LTE2nGx/Er4pGCOjrI8CXVzwbJZMkby2/Vj7VQtFjtPt7O+s3TBqQUAH1E61EE75rSbAMDmhbX5BoHrgjF1Whf0T1uE/m2T5zxtP2Xoo96/CWzC1q+StYjxwfULF0cI3AGmx4ENCPsA18hNwi+Fq4RbhFCwkfrWJizrlDZ70gEAurAJjrkrZQ2Fd/q0wzYk7Jd8wDVhjolzE9OLA2Hv4q6Q8lCHTltiZayp1wuPFGhrc6pkqy32YTPzGAo6APuoXT+cm8AvT7IuFf61mWn9Nk9zD9ycHC8Q0Fo/SsY2MSbmGZAOx2h1sQeekLRNBAIEAP8s3C2Ea3FG5wQAjxDS/iHkRsUtSdvQKmgmaPcJwQIAq7+j8t4k7Cuk92K4xpZwbdj8sD5snARq8BzaRlvq3C6wV3AdUD/kSaeDlXBS+mGJEcAF+efCLoItWusf4rggfiT8p2BtlOxKrL0tqkdKCxPWq7GjlzH8k5C1AbxG+UcKWRujsuMFgg4WzwPCDQIbI7pYPJQRODxKOEjgKQIXCX1SlhbyudjQ82HBNq70QrQL8EDVYW7YbFjUeTq58Glzh3CtcJ3ARoFQ9nABGw8QGAsXF7ry9HEhcqfyTcFsUXKZ0Ba7nya8TMhz/DY2+mWurxfg8DbBeNpd6UObwPFiH5JlX1KStGVtoquuAMDG+gLpBIyJvLQwJvLhlrVwmXClwDqijPliE2NtHSaw3lkXaV2Mn6CL9h8TeiE2JtbdHwpHCaw7u9bTHGO/jcHWFTxcL/xC+LVgawvdVl/JtmLrJR0ApBuhD2GjZ418WfitkCc41BOE3xVoa2tKyZaQxxq5STA7WoVB3nOU/n2BeQznivbwh3P8hvBzgfnMk71VcIzwdGGVEM49NmID+pnzq5tp+giFcvIeKRCI2rnNF2XMD/P4XeH7wn1CnrDOWI/PEvYTzHkqGQv7C1ye34TxRL+020mgT8vn+ExhL8HWEmPDJuYNe6gTio2dvMuFewUbF3vnXwnsPeFeZzq5vs4T0N1ODlThC4VHC1sFsxc9XJesq7OEawQrU3Lwkiar1xbZ4JnYNwtMJBtDaAcTzsL/ifAfQlWxPtkQcWxrBTZ7FkGvhEl/n8DCscXGxcBiw3nb4lWyJSwWbGTj+6zApodgf8hPnKkP6gPkYOHlAhsdCzA9NuqRx6bwQeFOwXhRsmXjk5R+pZC+UKmDMDc4QDbHc4T7BSTLxtA+6jyvCcZOWXpM6IYjNrpPCmkxe09Twe8KbJjwHIrpJf9rwjeDwk42MvaXCMxBuBkEKlrjv0qZbO5mkx3PUN7jBZxVOAfo20X4knBhs4zxWjvm7qkCcx+202nMFRscGy2cs3kj6XpJ7tK6YC28WniYkL7G4AmdrIMPCFwPZouStUmok3X/TAGeCbhYi+FaoG4o4frBVjZROLhEuFigPRzAY55Y/3BxZk4l2q8Sbhc+LDB3rB/mLE/o1+x7qdJPF8K5owx71wv/LNj1Tj5idr1M6acJYVvsYf+7RvjfAm2xh3xrr+R2gk5Avf2E1wk4V+tbybg9dv2r8Bsh5M/SRyn/jwX4RR9Cv9jAOvm4cIMQcqDTTKE99ex6eo3SRwjoIR/BXhzwd4VzBdrQH0dgQh5t3iAcLJh9tGffYDzYhoTtkpzkk7qI9fEcpX9PwB5rQz+sh08JlwrsB3DYTmy9sE7/UlgrsJ7Yw9nPbhQQ6zc5G4JPDB+EMHlsBLsL4QI1WyAKMn8o2KRZWdkjuhAWz5MFNh+bUCa7W5heqdhO6Ov7wkMC+hkLAc8+Qnq8lKOLhfZp4T8Fon7yTbJstDKODwjfEa4T4BV9plfJ1jl24KBY2LbosRWOuTD/WLCNVcmWoIu2dwnvFH4g4FTa2ajilmDPtcIFAvwfKtgFrGQs1CHvEQIb12UCeQg20tf/EJ4l2CatZEsYA8EJa+b9wnrB2isZCzpCNLPjAxfsN4TVwmEC48tqDw/MDwGqldvxicrbT0i3pU82lSsFeKA+IP95wglC6AR0Gou1+4zOWBcEXOQhHC2NLsZv5zjbxwvYAidmn5KxcM463E04SPix0GthvTH+bwsEZ98XbhGwGQfAnMMtgsNAsNPmHnvZr7D3+cKzhM3CjQJC3bRYHg7iGelCncMZZT8TzFEr2eKRdJYYz+jH8ewlrBVsTZOPbvhlvu8RzBYbT9a804b5+oKAM0Toy/qLM9p8UI9+2HcuFg4RstYj6/uXAmuO+oC2Bwt/KmAHeYjZ9FulualhDSJlbKI+4/6pAEePax6tb64X+r5DuE0wjujDoGQs7OGsb9aI2c26oS3ziFib9DEpXRrbo5QB0tcre/GvhNAWneYK/SAcvy+cL3xXYL0/IAytMNB+i00a5KzN6JxyLva9hScILBoWBAuxG7HJof33BKIy9NNPN2IXxLPVOK2DvrB1q0AfJs9V4hECjotyE6vPYv6QcLNAuW2AShYSuxiuVu13CkShbKqWr2RsKzZxN/RCAYeC/YyHdfBiIUsoxyleLpwdVCC/qNgcMLb/ErhYTxFwCiEfpNnUnyb8QrhKwDbsPlR4hkB5mnezkU3zewJ6ytin6nF92p0n3CdgH32F9ul0u77JKyvYz9zgOI4XWC/pfuBspfBx4bJmOW2oF45tJ50TvD1JWCusEtjQbFNLc4VeW3ccHy28QPiaQF3yeiFpvTgfNlkQljGewwU2ehwYmzv8INgHbGy/p/RpwjnCD4Qy9tMnum8RPisgoR1JTvtP64+7vCOFcA6ZI+biQOFqgboI+fsLzxQYV5hPMPJV4TsCEs5zktP5MxzDJ1T9/xawA130xbXEjddxAoEGeZRxnZ0ksObsukQXba8RPi5UERvLt6WEeSUIYA0YZ/TFnkpgYnWV7Kn8UNqPFcK9Ej6Yl1cKBJoXCux92JqW0HbsB6Gkz8OyoUgz6YOSH6vjpwosejY2iA+FRcDG9FsBx0l5FULRx4Wa7kdZhYW22HqMwIWyTQj1YR+byo2CRcqM73cE27SUbAn1ucDYfG8WWFDdLn500f5e4QKBjRFbQ8FWbD5M2EO4R0CwD2fE5pAez7Ty4P/LAlLFRhvbJdJDn4cLaQ6VFffxRB2vEqzN0UqbM0jbaAEKzh+xNslZ8U9r9101Ifg8SEjbV2UNmiVm/2OVsUYIHQF1sIP8y4QrBIQ8xo/Dxtkzh2xcrCuAYBubN8I8cU470qxXjncJvxF+KtwkhFLH2EJ97dJ5fbHWLhXsbg4dTxFeJOwswBXjMA7ZmF8msJY+KRQV+ufaY08wnTb/ZXRQ904B3pmz9F4W7rHYTL84v10ExspYEI6bhZOEFwt1CH2hk6PxxdH2AMbP2JFHCAcLlJlNVvcg5X1EqEvoE7usH/TS7z4CfV0rUFZ2PtSkkBgf7NHvEd4kPExgLbHfMW6uqV2FUwXmkOuHuWWeHxDYr28QbhVuEWhrgu30AYZawsXZL0MhBYI2CBcJJwuQB+kmpHFGewpnCGcJLAbyq5BK227b0zc2sBCeLiDoCu0mj/PLBduU2RT2FtLOVVkxD9S7jBNJt7YlrZfa4zQ2CthqvFEH27Bjd4EN6B4BwT7sZGFzAZhgDzquF24TkKoXpV3YcEQQwGYQckifYD8Bsf4OVDqLH/LQeaWAmP7krPwntqATDg9tpkP7lFWbsOlwDbKpZPXB2HF8OHw2I+aO9WJjph3CmMmzuWbOmEc2uN8KOPtrBOMyqy8VD4UwDhAKwcCPBfh6vbCDYI6WsbN/EDDeLRCo2hwq2VHQ0y8x/vdVh1n9YrfNaa9sglv63lmwgJq+sMnWUbg+SLPmbD9TsjYJ5xmbdhKwqx9ifbN23iWwB/6h8CjBxms8YBsBC0Ie1yL75xECnHGtAdL4Na63iwV0k2fzruRwySACABiwjeoipfcXjhGMLCVjgTicw1rhrcIHBSaBCbDJU7Lvcpp6XCuk7cUmLqhbhe8JZSR0umXa5dWFuzoFzuuWSRxzmkM2lqy1bGufzYggBP7NMZAGdg1xDbPuHhSuFXCUVwgEC0jW3GX1mdSu5xP76aOufuCJcRCEvlvgFRc3B2zUxgfpo4XvCwS2WeNWdkvqsq2lMCORZ0NW39RlDA8JWeUZ6rvOsr6K9EMdbDKuu+60Q0PWM08BQD/FOMBxn9XsmCCEtXSkQGBEwMl1BgesxdCh0548gPBU7pnCiQJj+bTwawHOrS8lh0MY1KAEMiDlPwTsgPC0U7WFyh3rO4T/I/xQYIMJJ0GnPRObOOx9o3CYkLaTzqnHIvicQOBiNnInfodAoJO+iBgDj69ZaOsF60vJrsTac2dNNE3AhB0mjAGuWezcHZrcrgRjSjtl9DGWA4WHCzcLNi4luxKbt8epNU6KPtJC3i3NTOvvJp1jQ1qoi07m5aJmWoeuBY6QRwvMZ5Z9lNchBIvt+qBvgE2McYWwUmBO1gs/F9hcmDskrJ/kDGbTeaQ6J6hnzZ8t4EBsHEp2JXCADq4n7rBOEthgbczwyJpnw7YAgDZ5Qrt+i3FwrzoOrzXsZJ2zP3xECK9NnfZUzCae/tm1aR1iF+vtywLfybG6SvZc0rb0usNwrbBevytcnOqUOdtDWCuwttmP2BvXCKxF9jPmEZ6YS3SeLtwgnCXYfhf2pezBySADAEYNERD2KYHo/kVCnnOF4FObdT6j428EBLJ7QSh2sQjRzWbzXIGN15y7ki2hDhcK47hGsLYcuXPj4nmEYBuWkrFQjpM+TrhS4M7N2ipZSqzdAWqFvXl24kQuF9iErA3ntwos5jBIMW4Z22nCBwQ4sXwlS4n190K1OlTImmvqwNNPBMTacE6QaH1zRDjC8RECc3ShYG2ULCXW7nlqdbCQDqBKKWtT2dbrL1XnBGEXIS8QoC7BEGuI+qFzwF7TpWScDs/JQ4wzS3PMqkd+GTG9bIp/LuwlMA7WEEeC2z8RcGp19Cc1sZguWwNhvpVZ3jAdja/fyqhnCDZ/5OMcdm/mf7VZVpcTtH7acXOd+uRGYD8h3AN0Gtv6Kx3rsgedNnftbKJePyTLlqyxsqY3CHcLPxPCOg/X+SsFrgHmEp3wzt50kPAK4VPCUEkYhQ7KMBYARF0jXCo8UVglQLZNjJKtTYy6TxAIFvYW1gs4O4SybsUmzBYkupnQVwkHCGl7lBVvavTJQviQcJVg50q2Nr3rlF4rZF1c9IvupzWP1+pYdhzMIzY8VXitkGcrjhxH/+/NOjq07CU/z8Gij/dezxCuEB4U6NO4UrKtMB7qgtcJ2JnlXBkD0fQ3hJ8KtKNvjtzV0edjhPQGBYfkEQQwbzhKxPpNzvI/aQ+w7+XCs4Qs+ygngGIDICChDWJH1m7WHNOONU2Qx/xSH7BucehHCVlzBh+0u0/4gmABE/oQOyZn23/a+Jn3NwsvE9B3g2CblNmurK6EPrCLeXuUsEVAJ/mMaQ+Btf1rwTjtZLeqbic2FvSdKnDzAj/0hT7mhaD2AoG1EMoOOmHthmLc4ozXC6YnrNMpbdztqIrHCNiALaYLG68WbM7NXtbynsLBgq1l2hD4sr65A71BKHONqXpLzK59lPMKATvgJs2LsmKBW8qYR/ZWW4voYZ3sKzxMuFQw3Up2JYyJdbhW4Dqiz6JC3/BMoGQ2wjfjg9OfC8a/koWEtocLzxVeJewksCZsvSm5ndAHCIU98RLhMIE9yOxTMq7LGuGmlfFW5VAq6hEmYxjEyNwoYy4StgpHCpBIWUiYpSmD6BME7ngfL7AJcfGgp6zsrwZPEV4qnCo8TdhFsIm0fpUVC/ksFja29woPCNSxsSi5TLh4uLjZwGzztQq0I+9QgYWI7usEExYjQj2QXpzY/UYBzmxDUbIl2MRCx5F8WLBFSD5AH2U3C08WbKNSMhYbF/WOF9gkqEsbE7MtPFoZ8wKvrxZ2FoxTJVtCHmXfEc4TrE8lW2vgGqXRxUXGGsEeE+qjYx+B4JC5uVogDwntsnRSknw+T4c3CPsKzEWoW6exwFVdAQAc08dtAusVTnEA2GZCmnrwwhrfVSAAIw+xcaSPSWniZF6lE4IaHD9cPFxgjZ0osCldJ5Af9qvTwgIntGVu4Jw1bOMgn3LW3nOERwoEZzZ2JdsK7eEIHeBo4fUC+jg3m0kzvq8L2GFtrDwrAFC1+Kkdm/16wWwlv6iYfng8RkgHACuVd5VwrZDWT79wtbdg1yx14O5xAmW/EJibovs07W3scMV6Zg97tAD/LxSOF9iDpCS4nAAADAtJREFULhNMjEvWIjqOEMI55HrgunimcL1wr0A/RQR92E8f9PvXwkHCAQL6fk94tkCfXK+bBdrkCbywhrHJ6sERQQF7Mfu/caBkLNSzunZ8nvL+p3CcwL7JvsG6PFg4XPiJgM1mu5K5gk7jkDFxvaLL+ppRmr3yB4LxquTgxQwcvCVLFphNEHqs8PsCk8BF0m7RUR9ANkAPYEGxwVKGcORCZVNY1TwnD/22EZoNylom1AO0vVz4pMAdD3Yx4e0EnbT9A+FZAguVcaWFOojZdpvSNwl3CVa2p9KPEB4mMFZsQLLsxi7s/ZnwKSFPzD6czJsELlYWaxbn2EF9HvHC7c1NPKgjwsa3v8CFupcAt3nzZ2NiTv5dIFDK49PycZavErAPyRs3dtCGR5u3NI82x2wYBwoHCHBIQIFk6UpKkjkmALlK+EizrnHB8Qzh8QKchLzRJxvxl4QLm2W2XmxMzCfODR7MRiWXCX0wJuQO4UaBdYEuypgPOGdMjA9+2ChDW3QaC30wFtbWR4UwKNRpabFxsJn+icB8IyGf2ImNrP3vCz8VsD9PWLeHCM8UHiWgEx1pnTsq7zzhG4LZoWRcD164Xs4kQ8I57Rk/G/XnhW8LYTudFhL0oG9v4c0CfNrcYSfnXxXSc66slvyxUk8W0vsB7eHqHuGbAtevrVElM2UX5R4n/K7AeMwWJWM7Wec4og8IXKtmv5KxGAfY8wrB+jO+scnW5/eUBtjXTlivTxKeK2Afa5J+TOCPve4Twq8Es0HJZWL5j1Eu1xnrGrExcJwWzhcuFhi7Cfppjy9ATNeJSr9Y2NjM0yEWs+k6nX1ZWJ9kt/08WqXs7YwXnkLOWMdc+98SrG8lBy9m5OAtybbAyGIzO034HcE2NWwvaj8TmpYybZlQFhFtvi2wKBCzLznr/El7bGHDYhEfKnDhoyfPHvpGwnIbD+3yhAuAfm4Vzha4UIvYa3Uep/qvFLio2Hjz+sIWsydtI+dhnk5bYm24OLgwvtgsob6VNbOWHcLyU1XyTIELuFNf6AxtsT7S4yLf8qyOsmJhLtjUrxI+IpgtdmROywYAahKL6XiezniCgUMObYkrBR+UmX02rvDc8oImcZJ1gWOBs08I1wk250pWEhsDSk4RjhcYBxLaY7aztrCFc+yCX2wxsO4A5eSFYuO4X5nMxV0CddBhYvbsqQwLAKyMejyx+LzwbSHdVlkdxfTvrZpvFtIBAGv7K8KFQpZ+y1ur8tcIcJG+1owr9h+7Fhn7AwLOhj7Qg2Nmb6Q9dhnf1p694BsCgZLZreR2YmXo/jPhMIG1Qt8mppM+qUef8Mlehm0EVtSnnPx0IKGsuB62rxcIQKljfSuZKcbXCSo9WaC/0C4aYRs2Wd/GA/vf+wUCIPIAtu0jvEHYRYA/+jChHP1wz7hYy6w3jqwd2jDntMF++rb+lIz1h2uMMuoMjYTGDo1RGYaExO2l8uOFowQmgMUHQvK7GZdNjB1ZQIDJ/qHwbYGLznRbPWWVFhYMi2tGeIFwnEBf3Mmjlz6sHyU7Cm2sHYuV9I8ELnbst/6ULCzW5mFq8RKBjSDcYFDUjY1cUGx0XIgEUj8WEHRhd1EJ6z9djU4S2HiI8o2LovZRH7Ah3S2cL5wosNZYW6aHOeOCv0rA6ZgNdjxdeUcKbJjwZ0I7bGM+viEYt0ouE9NDJnpeLOwrsC7YgCgHRcXGRX02Rdbbr4RzBTayPDtUVEnCcXCdMg64ZJPkzs3GYEdltZWscfxaLf5LuFfIG4fZQQDwVgFBF2Jz8nmlLxLydFA3T0w/AcCbBNY1ehH6Ya18VWg35ypu9c219lLhECHkKosnG0e6jHwrwx7WzbcE1jRiNidn+Z/GB/vJKcJTBPRiF4KerL6tjGMoZhdrkLXI/P0fgT3V+lKyo5j9rKc/E/YXHmq2Mnvs2MyO7WZ/vV44SzB+lGz1faDSLxceLrCHMI/oCXVZO46Wb0dlxXopY4xwzx78H4LpsvbKGg4JjR8OizpbYTYbmURYhwuPFVgMuwtceJAOqGdQctmkoovFB7YJOKXbhMub4BxJ95nkVv9M6/0dqTxGeKSwW1N9egy0MWA3aS6imwSc6S8FW3BKLlvsnJeV8OLEiT1ZwDmxWeEw2WCMX/pFzD6OOHzqbBCuEH4o3CIgoe4kp7vPUA9r4anCocKuArbRP2L2GW9mG3P+AwHbcPhw/2aB9qHDoj1r62rhwwLjQ78dT1aaQIkNhD5MaAdX3xHoJ7RXp5kS1jlANVgXjxFwZmxm2GW8c0SsT44AO24XfiawNggkELM3OevtZziOfdQVc8O1auMI149xiX3AxnG/0ncIPxd+IRBgIZ3GYeXM55/QIBCbk28p7ydCaGdQrW3S9LPnvExYJaCXfI44gUsE5tzqKpkroQ0EFU8T2BNwdsx5O67Qz3reJNwsMOeMi/VMGWLrJDkr9hnazfiOFtgDWJNcC2mb0nOITdjA9U/wyTV2t4CEupOc4p8hV49TsycJOO+dBexCzBaOBAlcDxcKPxLSfYf6HqnyZwqPEtgDEOYTPQbaGxgjPBCMssd9R2C9Iul+ktwh+cS4URebBJuY9HgoJyLbSWCSWYwshnb1bdKo00/Bviy7sIdFjRNhE2cDzLItr72q1yLGNRdDWuh7F4GL4UGBgCottEeybE9Kuvs0u9BLOotD7MI+ygiY0mPAfoT8tQJ3F2y6nJvdpJkHNvTPNPPrHovUbifWf1Zf3E2x6bEBwTvHtPR6XaT7yztnHCDNPXmsbbjFgbFRZ411WMYh83ouneac/Qwe+znnefMHGVxfrEOO7K9c/+k57NX81a03Tx/5OwoEQnnrtN28qdlwCY5x1IVFll5o4Zgow+nfF2R2qt+uPFBTezK9MVoH2MOmCJA8+/LaJ62qf9Jvu765U0Py6uTlJ62Kf6YvMhw1TyRuEPL6wDHaGsiqA3dc4Ah3qGxmBFqWp2Qs9H11kM7S1Syu7dCuDzbae5o95dXr9booOlDsy7KRPDZUgGTVIX9YxoEtvZY8DuiXOeduE8mr1wuu6CuvP66vTtd/L2yCg7r15ukjn+AGIFlcZOUltYfwcxwCgKK0jtTEZAxqFOzvpY04XtN/iNJPFHDUPN7lcTiO+lrhIwIXalhfp7FYezsPj7Sn3ZOEZws4o9D5U0bkf6NwmYC005fU6M/nsNhRZbTjMIYq4y/bdhj5GkabyvLaqf5YjZFN0sUZGHYGzJnvI0P/RuAxI091cNDpNUxQ+1XhWwJiTpwL1y5ea2NHnDuP0s8QDhd40mLtlIyFtjxpOFvgPZ/ZpKSLM+AMOAOjx4BtgKNnuVs8aQyYw+U98ZsEHvlvFbIctbLjL2DdpeN/CzhsHpnaKxQCCN6h7iscIRzdPM/Sp6L4yQBf6Pr/BL6IRp8EDS7OgDPgDIwsAx4AjOzUTazh5nyPFQOnCrwPRbLWst314/B5MsARwXkDniJQh7ZZ7anDXT/fHTireaSePUlQ0sUZcAacgdFkIGvTG82RuNWTxEDohJ+hgZ8sEBhwB09ZlXVtQQPfSuepwX8KVwoWeCjp4gw4A87A6DNQZaMc/dH7CMaBAQsGeDVwgvAUgS8G4sj5ciBoJ7Tn6QBAbhW+J/xIsC8X+uN+keHiDDgD48WABwDjNZ+TPBrWMgidNe/49xf4Qy2Ax/kIdfhbAICf0N0m2E+YlIzv9u1JAOcuzoAz4AyMHQMeAIzdlPqAAgYsKCAr6729rX939gFpnnQGnAFnwBlwBpwBZ8AZcAacAWfAGXAGnAFnwBlwBpwBZ8AZcAacAWfAGXAGnAFnwBlwBpwBZ8AZcAacAWfAGXAGnAFnwBlwBpwBZ8AZcAacAWfAGXAGnAFnwBlwBpwBZ8AZcAacAWfAGXAGnAFnwBlwBpwBZ8AZcAacAWfAGXAGnAFnwBlwBpwBZ8AZcAacAWfAGXAGnAFnwBlwBpwBZ8AZcAacAWfAGXAGnAFnwBlwBpwBZ8AZcAacAWfAGXAGnAFnwBlwBpwBZ8AZcAacAWfAGXAGnAFnwBlwBpwBZ8AZcAacAWfAGXAGnAFnwBlwBpwBZ8AZcAacAWfAGXAGnAFnwBlwBpwBZ8AZcAbGiIH/H2yA88FtiymJAAAAAElFTkSuQmCC;" parent="1" vertex="1">
          <mxGeometry x="490" y="559.63" width="82" height="82" as="geometry" />
        </mxCell>
        <mxCell id="QdALqMk5L36PqvdnBMki-2" value="" style="image;aspect=fixed;html=1;points=[];align=center;fontSize=12;image=img/lib/azure2/app_services/App_Service_Domains.svg;" parent="1" vertex="1">
          <mxGeometry x="498.5" y="681.88" width="65" height="52" as="geometry" />
        </mxCell>
        <mxCell id="QdALqMk5L36PqvdnBMki-1" value="" style="image;aspect=fixed;html=1;points=[];align=center;fontSize=12;image=img/lib/azure2/analytics/Power_BI_Embedded.svg;" parent="1" vertex="1">
          <mxGeometry x="1440" y="628.32" width="51" height="68" as="geometry" />
        </mxCell>
        <mxCell id="QdALqMk5L36PqvdnBMki-33" value="&lt;font style=&quot;font-size: 10px;&quot;&gt;&lt;b style=&quot;&quot;&gt;STAGING&lt;/b&gt;&lt;/font&gt;" style="text;html=1;align=center;verticalAlign=middle;whiteSpace=wrap;rounded=0;labelBackgroundColor=none;" parent="1" vertex="1">
          <mxGeometry x="917.5" y="688.3199999999999" width="60" height="30" as="geometry" />
        </mxCell>
        <mxCell id="sRY9ysoecm9_q-VgheIL-1" value="&lt;span style=&quot;font-size: 10px;&quot;&gt;&lt;span&gt;ÃRGANOS DE ALTA DIRECCIÃN&lt;/span&gt;&lt;/span&gt;" style="text;html=1;align=center;verticalAlign=middle;whiteSpace=wrap;rounded=0;labelBackgroundColor=none;fontStyle=1" vertex="1" parent="1">
          <mxGeometry x="108.97" y="350" width="140" height="30" as="geometry" />
        </mxCell>
        <mxCell id="sRY9ysoecm9_q-VgheIL-2" value="&lt;span style=&quot;font-size: 10px;&quot;&gt;&lt;b&gt;ÃRGANOS DE CONTROL INSTITUCIONAL&lt;/b&gt;&lt;/span&gt;" style="text;html=1;align=center;verticalAlign=middle;whiteSpace=wrap;rounded=0;labelBackgroundColor=none;" vertex="1" parent="1">
          <mxGeometry x="113.97" y="478.25" width="130" height="30" as="geometry" />
        </mxCell>
        <mxCell id="sRY9ysoecm9_q-VgheIL-3" value="" style="image;aspect=fixed;html=1;points=[];align=center;fontSize=12;image=img/lib/azure2/other/Exchange_On_Premises_Access.svg;" vertex="1" parent="1">
          <mxGeometry x="167.75" y="425" width="15.67" height="26.63" as="geometry" />
        </mxCell>
        <mxCell id="sRY9ysoecm9_q-VgheIL-4" value="" style="image;aspect=fixed;html=1;points=[];align=center;fontSize=12;image=img/lib/azure2/other/Exchange_On_Premises_Access.svg;" vertex="1" parent="1">
          <mxGeometry x="190.84" y="425" width="15.67" height="26.63" as="geometry" />
        </mxCell>
        <mxCell id="sRY9ysoecm9_q-VgheIL-5" value="" style="image;aspect=fixed;html=1;points=[];align=center;fontSize=12;image=img/lib/azure2/other/Exchange_On_Premises_Access.svg;" vertex="1" parent="1">
          <mxGeometry x="154.94" y="390" width="17.65" height="30" as="geometry" />
        </mxCell>
        <mxCell id="sRY9ysoecm9_q-VgheIL-6" value="" style="image;aspect=fixed;html=1;points=[];align=center;fontSize=12;image=img/lib/azure2/other/Exchange_On_Premises_Access.svg;" vertex="1" parent="1">
          <mxGeometry x="178.76999999999998" y="390" width="17.65" height="30" as="geometry" />
        </mxCell>
        <mxCell id="sRY9ysoecm9_q-VgheIL-9" value="&lt;span style=&quot;font-size: 10px;&quot;&gt;&lt;b&gt;ÃRGANOS ESPECIALES&lt;/b&gt;&lt;/span&gt;" style="text;html=1;align=center;verticalAlign=middle;whiteSpace=wrap;rounded=0;labelBackgroundColor=none;" vertex="1" parent="1">
          <mxGeometry x="113.97" y="559.63" width="130" height="30" as="geometry" />
        </mxCell>
        <mxCell id="sRY9ysoecm9_q-VgheIL-10" value="" style="image;aspect=fixed;html=1;points=[];align=center;fontSize=12;image=img/lib/azure2/other/Exchange_On_Premises_Access.svg;" vertex="1" parent="1">
          <mxGeometry x="144.19" y="589.63" width="15.29" height="26" as="geometry" />
        </mxCell>
        <mxCell id="sRY9ysoecm9_q-VgheIL-11" value="" style="image;aspect=fixed;html=1;points=[];align=center;fontSize=12;image=img/lib/azure2/other/Exchange_On_Premises_Access.svg;" vertex="1" parent="1">
          <mxGeometry x="166.39" y="589.63" width="15.29" height="26" as="geometry" />
        </mxCell>
        <mxCell id="sRY9ysoecm9_q-VgheIL-12" value="" style="image;aspect=fixed;html=1;points=[];align=center;fontSize=12;image=img/lib/azure2/other/Exchange_On_Premises_Access.svg;" vertex="1" parent="1">
          <mxGeometry x="188.35" y="589.63" width="15.29" height="26" as="geometry" />
        </mxCell>
        <mxCell id="sRY9ysoecm9_q-VgheIL-13" value="" style="image;aspect=fixed;html=1;points=[];align=center;fontSize=12;image=img/lib/azure2/other/Exchange_On_Premises_Access.svg;" vertex="1" parent="1">
          <mxGeometry x="147.46" y="721.7" width="15.29" height="26" as="geometry" />
        </mxCell>
        <mxCell id="sRY9ysoecm9_q-VgheIL-14" value="&lt;span style=&quot;font-size: 10px;&quot;&gt;&lt;b&gt;ÃRGANOS DE ASESORAMIENTO&lt;/b&gt;&lt;/span&gt;" style="text;html=1;align=center;verticalAlign=middle;whiteSpace=wrap;rounded=0;labelBackgroundColor=none;" vertex="1" parent="1">
          <mxGeometry x="113.97" y="647.32" width="140" height="30" as="geometry" />
        </mxCell>
        <mxCell id="sRY9ysoecm9_q-VgheIL-15" value="" style="image;aspect=fixed;html=1;points=[];align=center;fontSize=12;image=img/lib/azure2/other/Exchange_On_Premises_Access.svg;" vertex="1" parent="1">
          <mxGeometry x="168.35999999999999" y="721.7" width="15.29" height="26" as="geometry" />
        </mxCell>
        <mxCell id="sRY9ysoecm9_q-VgheIL-16" value="" style="image;aspect=fixed;html=1;points=[];align=center;fontSize=12;image=img/lib/azure2/other/Exchange_On_Premises_Access.svg;" vertex="1" parent="1">
          <mxGeometry x="189.42" y="721.7" width="15.29" height="26" as="geometry" />
        </mxCell>
        <mxCell id="sRY9ysoecm9_q-VgheIL-17" value="" style="image;aspect=fixed;html=1;points=[];align=center;fontSize=12;image=img/lib/azure2/other/Exchange_On_Premises_Access.svg;" vertex="1" parent="1">
          <mxGeometry x="159.48" y="690.7" width="15.29" height="26" as="geometry" />
        </mxCell>
        <mxCell id="sRY9ysoecm9_q-VgheIL-18" value="" style="image;aspect=fixed;html=1;points=[];align=center;fontSize=12;image=img/lib/azure2/other/Exchange_On_Premises_Access.svg;" vertex="1" parent="1">
          <mxGeometry x="181.13" y="690.7" width="15.29" height="26" as="geometry" />
        </mxCell>
        <mxCell id="sRY9ysoecm9_q-VgheIL-20" value="&lt;span style=&quot;font-size: 10px;&quot;&gt;&lt;b&gt;ÃRGANOS DE APOYO&lt;/b&gt;&lt;/span&gt;" style="text;html=1;align=center;verticalAlign=middle;whiteSpace=wrap;rounded=0;labelBackgroundColor=none;" vertex="1" parent="1">
          <mxGeometry x="113.97" y="769.63" width="140" height="30" as="geometry" />
        </mxCell>
        <mxCell id="sRY9ysoecm9_q-VgheIL-23" value="" style="image;aspect=fixed;html=1;points=[];align=center;fontSize=12;image=img/lib/azure2/other/Exchange_On_Premises_Access.svg;" vertex="1" parent="1">
          <mxGeometry x="147.45000000000002" y="799.63" width="15.29" height="26" as="geometry" />
        </mxCell>
        <mxCell id="sRY9ysoecm9_q-VgheIL-24" value="" style="image;aspect=fixed;html=1;points=[];align=center;fontSize=12;image=img/lib/azure2/other/Exchange_On_Premises_Access.svg;" vertex="1" parent="1">
          <mxGeometry x="169.48" y="799.63" width="15.29" height="26" as="geometry" />
        </mxCell>
        <mxCell id="sRY9ysoecm9_q-VgheIL-25" value="" style="image;aspect=fixed;html=1;points=[];align=center;fontSize=12;image=img/lib/azure2/other/Exchange_On_Premises_Access.svg;" vertex="1" parent="1">
          <mxGeometry x="191.45" y="799.63" width="15.29" height="26" as="geometry" />
        </mxCell>
        <mxCell id="sRY9ysoecm9_q-VgheIL-27" value="&lt;span style=&quot;font-size: 10px;&quot;&gt;&lt;b&gt;ÃRGANOS DE LINEA&lt;/b&gt;&lt;/span&gt;" style="text;html=1;align=center;verticalAlign=middle;whiteSpace=wrap;rounded=0;labelBackgroundColor=none;" vertex="1" parent="1">
          <mxGeometry x="113.97" y="849.63" width="140" height="30" as="geometry" />
        </mxCell>
        <mxCell id="sRY9ysoecm9_q-VgheIL-30" value="" style="image;aspect=fixed;html=1;points=[];align=center;fontSize=12;image=img/lib/azure2/other/Exchange_On_Premises_Access.svg;" vertex="1" parent="1">
          <mxGeometry x="147.45000000000002" y="879.63" width="15.29" height="26" as="geometry" />
        </mxCell>
        <mxCell id="sRY9ysoecm9_q-VgheIL-31" value="" style="image;aspect=fixed;html=1;points=[];align=center;fontSize=12;image=img/lib/azure2/other/Exchange_On_Premises_Access.svg;" vertex="1" parent="1">
          <mxGeometry x="169.48" y="879.63" width="15.29" height="26" as="geometry" />
        </mxCell>
        <mxCell id="sRY9ysoecm9_q-VgheIL-32" value="" style="image;aspect=fixed;html=1;points=[];align=center;fontSize=12;image=img/lib/azure2/other/Exchange_On_Premises_Access.svg;" vertex="1" parent="1">
          <mxGeometry x="191.45" y="879.63" width="15.29" height="26" as="geometry" />
        </mxCell>
        <mxCell id="sRY9ysoecm9_q-VgheIL-33" value="&lt;span style=&quot;font-size: 10px;&quot;&gt;&lt;b&gt;ORGANOS DESCONCENTRADOS&lt;/b&gt;&lt;/span&gt;" style="text;html=1;align=center;verticalAlign=middle;whiteSpace=wrap;rounded=0;labelBackgroundColor=none;" vertex="1" parent="1">
          <mxGeometry x="113.97" y="929.63" width="140" height="30" as="geometry" />
        </mxCell>
        <mxCell id="sRY9ysoecm9_q-VgheIL-35" value="" style="image;aspect=fixed;html=1;points=[];align=center;fontSize=12;image=img/lib/azure2/other/Exchange_On_Premises_Access.svg;" vertex="1" parent="1">
          <mxGeometry x="169.48" y="962.63" width="15.29" height="26" as="geometry" />
        </mxCell>
        <mxCell id="sRY9ysoecm9_q-VgheIL-37" value="" style="image;aspect=fixed;html=1;points=[];align=center;fontSize=12;image=img/lib/azure2/other/Exchange_On_Premises_Access.svg;" vertex="1" parent="1">
          <mxGeometry x="167.75" y="516.87" width="15.67" height="26.63" as="geometry" />
        </mxCell>
        <mxCell id="sRY9ysoecm9_q-VgheIL-38" value="" style="endArrow=classic;html=1;rounded=0;fontSize=12;startSize=8;endSize=8;curved=1;" edge="1" parent="1">
          <mxGeometry width="50" height="50" relative="1" as="geometry">
            <mxPoint x="320" y="510" as="sourcePoint" />
            <mxPoint x="440" y="580" as="targetPoint" />
          </mxGeometry>
        </mxCell>
        <mxCell id="sRY9ysoecm9_q-VgheIL-40" value="" style="endArrow=classic;html=1;rounded=0;fontSize=12;startSize=8;endSize=8;curved=1;" edge="1" parent="1">
          <mxGeometry width="50" height="50" relative="1" as="geometry">
            <mxPoint x="320" y="680" as="sourcePoint" />
            <mxPoint x="440" y="680" as="targetPoint" />
          </mxGeometry>
        </mxCell>
        <mxCell id="sRY9ysoecm9_q-VgheIL-44" value="" style="endArrow=classic;html=1;rounded=0;fontSize=12;startSize=8;endSize=8;curved=1;" edge="1" parent="1">
          <mxGeometry width="50" height="50" relative="1" as="geometry">
            <mxPoint x="320" y="850" as="sourcePoint" />
            <mxPoint x="440" y="760" as="targetPoint" />
          </mxGeometry>
        </mxCell>
        <mxCell id="sRY9ysoecm9_q-VgheIL-45" value="" style="sketch=0;pointerEvents=1;shadow=0;dashed=0;html=1;strokeColor=none;fillColor=#505050;labelPosition=center;verticalLabelPosition=bottom;verticalAlign=top;outlineConnect=0;align=center;shape=mxgraph.office.concepts.settings;rotation=15;" vertex="1" parent="1">
          <mxGeometry x="749.82" y="628.3399999999999" width="30.68" height="30.68" as="geometry" />
        </mxCell>
        <mxCell id="sRY9ysoecm9_q-VgheIL-46" value="" style="sketch=0;pointerEvents=1;shadow=0;dashed=0;html=1;strokeColor=none;fillColor=#505050;labelPosition=center;verticalLabelPosition=bottom;verticalAlign=top;outlineConnect=0;align=center;shape=mxgraph.office.concepts.settings;rotation=15;" vertex="1" parent="1">
          <mxGeometry x="758.68" y="660.02" width="30.68" height="30.68" as="geometry" />
        </mxCell>
        <mxCell id="sRY9ysoecm9_q-VgheIL-47" value="" style="endArrow=classic;html=1;rounded=0;fontSize=12;startSize=8;endSize=8;curved=1;" edge="1" parent="1">
          <mxGeometry width="50" height="50" relative="1" as="geometry">
            <mxPoint x="620" y="665.55" as="sourcePoint" />
            <mxPoint x="699.5" y="666" as="targetPoint" />
          </mxGeometry>
        </mxCell>
        <mxCell id="sRY9ysoecm9_q-VgheIL-48" value="" style="endArrow=classic;html=1;rounded=0;fontSize=12;startSize=8;endSize=8;curved=1;" edge="1" parent="1">
          <mxGeometry width="50" height="50" relative="1" as="geometry">
            <mxPoint x="810" y="661.8199999999999" as="sourcePoint" />
            <mxPoint x="889.5" y="662.27" as="targetPoint" />
          </mxGeometry>
        </mxCell>
        <mxCell id="sRY9ysoecm9_q-VgheIL-49" value="" style="sketch=0;shadow=0;dashed=0;html=1;strokeColor=none;labelPosition=center;verticalLabelPosition=bottom;verticalAlign=top;outlineConnect=0;align=center;shape=mxgraph.office.databases.database_mini_2;fillColor=#DA4026;" vertex="1" parent="1">
          <mxGeometry x="930" y="636.3199999999999" width="35" height="52" as="geometry" />
        </mxCell>
        <mxCell id="sRY9ysoecm9_q-VgheIL-50" value="" style="endArrow=classic;html=1;rounded=0;fontSize=12;startSize=8;endSize=8;curved=1;" edge="1" parent="1">
          <mxGeometry width="50" height="50" relative="1" as="geometry">
            <mxPoint x="1000" y="665.55" as="sourcePoint" />
            <mxPoint x="1079.5" y="666" as="targetPoint" />
          </mxGeometry>
        </mxCell>
        <mxCell id="sRY9ysoecm9_q-VgheIL-51" value="" style="endArrow=classic;html=1;rounded=0;fontSize=12;startSize=8;endSize=8;curved=1;" edge="1" parent="1">
          <mxGeometry width="50" height="50" relative="1" as="geometry">
            <mxPoint x="1310" y="665.55" as="sourcePoint" />
            <mxPoint x="1389.5" y="666" as="targetPoint" />
          </mxGeometry>
        </mxCell>
        <mxCell id="sRY9ysoecm9_q-VgheIL-52" value="&lt;font style=&quot;font-size: 10px;&quot;&gt;&lt;b style=&quot;&quot;&gt;STAGING&lt;/b&gt;&lt;/font&gt;" style="text;html=1;align=center;verticalAlign=middle;whiteSpace=wrap;rounded=0;labelBackgroundColor=none;" vertex="1" parent="1">
          <mxGeometry x="730" y="690.6999999999999" width="60" height="30" as="geometry" />
        </mxCell>
      </root>
    </mxGraphModel>
  </diagram>
</mxfile>
